<svg width="16" height="16" viewBox="0 0 16 16" fill="none" xmlns="http://www.w3.org/2000/svg">
<path d="M7.9987 1.33325C11.6807 1.33325 14.6654 4.31792 14.6654 7.99992C14.6654 11.6819 11.6807 14.6666 7.9987 14.6666C4.3167 14.6666 1.33203 11.6819 1.33203 7.99992C1.33203 4.31792 4.3167 1.33325 7.9987 1.33325ZM7.9987 3.99992C7.82189 3.99992 7.65232 4.07016 7.52729 4.19518C7.40227 4.32021 7.33203 4.48977 7.33203 4.66659V7.99992C7.33207 8.17672 7.40233 8.34626 7.52736 8.47125L9.52736 10.4713C9.6531 10.5927 9.8215 10.6599 9.9963 10.6584C10.1711 10.6568 10.3383 10.5867 10.4619 10.4631C10.5855 10.3395 10.6556 10.1723 10.6571 9.99752C10.6587 9.82272 10.5915 9.65432 10.47 9.52859L8.66536 7.72392V4.66659C8.66536 4.48977 8.59513 4.32021 8.4701 4.19518C8.34508 4.07016 8.17551 3.99992 7.9987 3.99992Z" fill="white"/>
</svg>
