<svg width="16" height="16" viewBox="0 0 16 16" fill="none" xmlns="http://www.w3.org/2000/svg">
<path d="M1.37736 3.65463L7.29403 9.57196C7.46906 9.74712 7.70286 9.8511 7.95016 9.86379C8.19745 9.87647 8.44066 9.79695 8.6327 9.64063L8.7087 9.57196L14.6214 3.65863C14.6405 3.73196 14.6534 3.80685 14.66 3.88329L14.6654 3.99996V12C14.6655 12.3363 14.5384 12.6603 14.3097 12.907C14.081 13.1536 13.7675 13.3047 13.432 13.33L13.332 13.3333H2.66536C2.32898 13.3334 2.00499 13.2064 1.75833 12.9776C1.51168 12.7489 1.36059 12.4354 1.33536 12.1L1.33203 12V3.99996C1.33203 3.91996 1.3387 3.84218 1.35203 3.76663L1.37736 3.65463ZM13.332 2.66663C13.4129 2.66663 13.4918 2.67351 13.5687 2.68729L13.682 2.71329L8.00203 8.39329L2.32003 2.71196C2.39381 2.69196 2.46936 2.67863 2.5467 2.67196L2.66536 2.66663H13.332Z" fill="#3E3A39"/>
</svg>
