<svg width="32" height="32" viewBox="0 0 32 32" fill="none" xmlns="http://www.w3.org/2000/svg">
<g opacity="0.6">
<path fill-rule="evenodd" clip-rule="evenodd" d="M7.99992 2.66669H21.3333L26.6666 8.00002V26.6667C26.6666 27.3739 26.3856 28.0522 25.8855 28.5523C25.3854 29.0524 24.7072 29.3334 23.9999 29.3334H7.99992C7.29267 29.3334 6.6144 29.0524 6.1143 28.5523C5.6142 28.0522 5.33325 27.3739 5.33325 26.6667V5.33335C5.33325 4.62611 5.6142 3.94783 6.1143 3.44774C6.6144 2.94764 7.29267 2.66669 7.99992 2.66669ZM20.2293 5.33335H7.99992V26.6667H23.9999V9.10402H20.2293V5.33335ZM10.6666 5.33335H13.3333V8.00002H10.6666V5.33335ZM13.3333 8.00002H15.9999V10.6667H13.3333V8.00002ZM10.6666 10.6667H13.3333V13.3334H10.6666V10.6667ZM13.3333 13.3334H15.9999V16H13.3333V13.3334ZM11.9999 18.6667L13.3333 17.3334L14.6666 18.6667V24H11.9999V18.6667Z" fill="#3E3A39"/>
</g>
</svg>
