<svg width="16" height="16" viewBox="0 0 16 16" fill="none" xmlns="http://www.w3.org/2000/svg">
<path d="M13.0057 9.66004C13.4419 8.84137 13.6691 7.92766 13.6673 7.00004C13.6673 3.87037 11.1303 1.33337 8.00066 1.33337C4.87099 1.33337 2.33399 3.87037 2.33399 7.00004C2.33164 8.33681 2.80417 9.63096 3.66733 10.6517L3.67399 10.66L3.67999 10.6667H3.66733L7.02999 14.2367C7.15465 14.369 7.30504 14.4745 7.47194 14.5465C7.63883 14.6186 7.8187 14.6558 8.00049 14.6558C8.18228 14.6558 8.36215 14.6186 8.52905 14.5465C8.69594 14.4745 8.84634 14.369 8.97099 14.2367L12.334 10.6667H12.3213L12.3267 10.6604L12.3273 10.6597C12.3513 10.631 12.3752 10.6022 12.399 10.573C12.6303 10.2889 12.8334 9.98338 13.0057 9.66004ZM8.00233 9.16637C7.47189 9.16637 6.96319 8.95566 6.58811 8.58059C6.21304 8.20551 6.00233 7.69681 6.00233 7.16637C6.00233 6.63594 6.21304 6.12723 6.58811 5.75216C6.96319 5.37709 7.47189 5.16637 8.00233 5.16637C8.53276 5.16637 9.04147 5.37709 9.41654 5.75216C9.79161 6.12723 10.0023 6.63594 10.0023 7.16637C10.0023 7.69681 9.79161 8.20551 9.41654 8.58059C9.04147 8.95566 8.53276 9.16637 8.00233 9.16637Z" fill="#ED6C00"/>
</svg>
