<svg width="25" height="20" viewBox="0 0 25 20" fill="none" xmlns="http://www.w3.org/2000/svg">
<path d="M11.4638 1.87775L5.89643 10.8773C5.74761 11.1169 5.87068 11.3914 6.12254 11.3914H8.41221C8.61256 11.3914 8.69842 11.482 8.69842 11.7151V18.6836C8.69842 19.1433 9.1907 19.344 9.42539 18.975L14.9309 10.6695C15.0855 10.4299 14.9607 10.0965 14.7088 10.0965H12.7053C12.4191 10.0965 12.1329 9.77275 12.1329 9.44903V2.00336C12.1329 1.67963 11.6979 1.50223 11.4638 1.87775Z" fill="#5D5FEF"/>
<path fill-rule="evenodd" clip-rule="evenodd" d="M12.7578 16.2281C14.0346 17.4443 15.7319 18.1249 17.4995 18.1249C19.3229 18.1249 21.0715 17.4006 22.3609 16.1113C23.6502 14.822 24.3745 13.0733 24.3745 11.2499C24.3745 8.79682 23.2409 6.19682 21.0932 3.73042C20.1282 2.61592 19.0421 1.61234 17.855 0.738228C17.7499 0.664612 17.6247 0.625122 17.4964 0.625122C17.3681 0.625122 17.2429 0.664612 17.1378 0.738228C15.9528 1.6127 14.8688 2.61627 13.9057 3.73042C13.7808 3.8739 13.6593 4.01785 13.5412 4.16218V8.33342H14.6871C15.5527 8.33342 16.2191 8.86923 16.5042 9.52787C16.7809 10.1671 16.716 10.9325 16.2759 11.5357L16.2695 11.5444L12.7578 16.2281ZM21.8628 11.9796C21.7007 12.8849 21.2652 13.7187 20.6148 14.3689C19.9645 15.0191 19.1305 15.4545 18.2253 15.6164C18.1919 15.6216 18.1582 15.6245 18.1245 15.6249C17.9677 15.6249 17.8167 15.5659 17.7013 15.4598C17.586 15.3536 17.5148 15.2079 17.5018 15.0517C17.4888 14.8955 17.535 14.74 17.6313 14.6163C17.7275 14.4925 17.8667 14.4094 18.0214 14.3835C19.3159 14.1656 20.4143 13.0671 20.6339 11.7703C20.6616 11.6068 20.7532 11.461 20.8884 11.3651C21.0237 11.2691 21.1915 11.2308 21.355 11.2585C21.5184 11.2863 21.6642 11.3779 21.7602 11.5131C21.8561 11.6483 21.8944 11.8162 21.8667 11.9796H21.8628Z" fill="#3E3A39"/>
</svg>
