<svg width="20" height="20" viewBox="0 0 20 20" fill="none" xmlns="http://www.w3.org/2000/svg">
<path d="M3.33334 17.5C3.09723 17.5 2.89945 17.42 2.74 17.26C2.58056 17.1 2.50056 16.9022 2.5 16.6667C2.49945 16.4311 2.57945 16.2333 2.74 16.0733C2.90056 15.9133 3.09834 15.8333 3.33334 15.8333H4.16667V10.8333H3.33334C3.09723 10.8333 2.89945 10.7533 2.74 10.5933C2.58056 10.4333 2.50056 10.2356 2.5 10C2.49945 9.76444 2.57945 9.56667 2.74 9.40667C2.90056 9.24667 3.09834 9.16667 3.33334 9.16667H4.16667V4.16667H3.33334C3.09723 4.16667 2.89945 4.08667 2.74 3.92667C2.58056 3.76667 2.50056 3.56889 2.5 3.33333C2.49945 3.09778 2.57945 2.9 2.74 2.74C2.90056 2.58 3.09834 2.5 3.33334 2.5H16.6667C16.9028 2.5 17.1008 2.58 17.2608 2.74C17.4208 2.9 17.5006 3.09778 17.5 3.33333C17.4994 3.56889 17.4194 3.76694 17.26 3.9275C17.1006 4.08806 16.9028 4.16778 16.6667 4.16667H15.8333V9.16667H16.6667C16.9028 9.16667 17.1008 9.24667 17.2608 9.40667C17.4208 9.56667 17.5006 9.76444 17.5 10C17.4994 10.2356 17.4194 10.4336 17.26 10.5942C17.1006 10.7547 16.9028 10.8344 16.6667 10.8333H15.8333V15.8333H16.6667C16.9028 15.8333 17.1008 15.9133 17.2608 16.0733C17.4208 16.2333 17.5006 16.4311 17.5 16.6667C17.4994 16.9022 17.4194 17.1003 17.26 17.2608C17.1006 17.4214 16.9028 17.5011 16.6667 17.5H3.33334ZM10 13.3333C10.6944 13.3333 11.2847 13.0939 11.7708 12.615C12.2569 12.1361 12.5 11.5561 12.5 10.875C12.5 10.3333 12.3439 9.86806 12.0317 9.47917C11.7194 9.09028 11.0422 8.29167 10 7.08333C8.95834 8.27778 8.28139 9.07306 7.96917 9.46917C7.65695 9.86528 7.50056 10.3339 7.5 10.875C7.5 11.5556 7.74306 12.1356 8.22917 12.615C8.71528 13.0944 9.30556 13.3339 10 13.3333Z" fill="#3E3A39"/>
</svg>
