<svg width="21" height="23" viewBox="0 0 21 23" fill="none" xmlns="http://www.w3.org/2000/svg">
<path d="M2.49119 23.0052C2.20197 23.0035 1.91608 22.9421 1.65082 22.8246C1.38557 22.7071 1.14646 22.536 0.94796 22.3216C-0.201896 21.1549 -0.312847 19.7106 0.645366 18.4668C1.60358 17.223 3.87808 16.0666 6.5409 15.2391C6.83845 14.571 7.13096 13.8668 7.40834 13.137C7.72102 12.3044 8.00344 11.4769 8.24551 10.67C6.31395 7.39085 5.10358 3.9884 5.57764 2.05074C5.91554 0.647613 7.00992 -0.0976386 8.57836 -0.00512463C9.37015 0.061691 10.7621 0.508842 11.216 2.76515C11.5892 4.61029 11.216 7.39085 10.4292 10.3307C11.2178 11.5937 12.096 12.7962 13.0567 13.9285C15.881 13.6767 18.4227 13.8823 19.7743 14.72C20.041 14.8646 20.277 15.0616 20.4687 15.2995C20.6604 15.5375 20.804 15.8118 20.8912 16.1066C20.9784 16.4014 21.0075 16.7108 20.9768 17.0171C20.9461 17.3234 20.8562 17.6205 20.7124 17.8912C20.6902 17.9408 20.6649 17.9888 20.6367 18.0351C19.6281 19.5462 18.0092 19.9368 16.1432 19.099C14.68 18.3509 13.3665 17.3312 12.27 16.0923C10.8235 16.2693 9.38985 16.5423 7.97822 16.9095C6.65185 19.6541 5.11871 21.8693 3.72174 22.6351C3.34736 22.859 2.92487 22.9861 2.49119 23.0052ZM5.22966 17.8295C3.86295 18.3795 2.77865 19.0271 2.23398 19.7363C1.94148 20.1115 1.89104 20.3788 2.37015 20.8722C2.45084 20.9493 2.50127 21.0007 2.78369 20.8722C3.46957 20.4713 4.34205 19.3663 5.22966 17.8295ZM15.0034 15.9124C15.5956 16.4476 16.2596 16.8941 16.9753 17.2384C18.2513 17.8141 18.7102 17.3104 18.9271 16.9866C19.038 16.7091 18.9876 16.6474 18.7455 16.4726C18.0445 16.0615 16.6727 15.8867 15.0034 15.9124ZM9.66266 12.8595C9.46093 13.4351 9.24911 14.0056 9.02721 14.5658C9.57692 14.4425 10.1367 14.3345 10.6915 14.242C10.3384 13.8103 9.99551 13.3734 9.66266 12.8595ZM8.26568 2.06616C7.65041 2.06616 7.58485 2.33342 7.53442 2.58013C7.27721 3.64404 7.89248 5.62281 8.98686 7.80716C9.35546 6.31465 9.44951 4.76544 9.26424 3.238C9.04738 2.13811 8.62375 2.06616 8.43211 2.06616H8.26568Z" fill="#ED6C00"/>
</svg>
