<svg width="32" height="32" viewBox="0 0 32 32" fill="none" xmlns="http://www.w3.org/2000/svg">
<path fill-rule="evenodd" clip-rule="evenodd" d="M9.27981 22.4H7.9998V24H9.27981C9.75981 24 10.0798 23.68 10.0798 23.2C10.0798 22.72 9.75981 22.4 9.27981 22.4ZM17.5998 3.20001H4.7998V28.8H25.5998V11.2L17.5998 3.20001ZM11.5198 23.36C11.5198 24.64 10.5598 25.6 9.27981 25.6H7.9998V27.2H6.3998V20.8H9.27981C10.5598 20.8 11.5198 21.76 11.5198 23.04V23.36ZM18.0798 24.16C18.0798 25.76 16.7998 27.2 15.0398 27.2H12.7998V20.8H15.0398C16.6398 20.8 18.0798 22.08 18.0798 23.84V24.16ZM23.9998 22.4H20.7998V24H23.1998V25.6H20.7998V27.2H19.1998V20.8H23.9998V22.4ZM23.9998 19.2H6.3998V4.80001H17.5998V11.2H23.9998V19.2ZM15.0398 22.4H14.3998V25.6H15.0398C15.9998 25.6 16.6398 24.96 16.6398 24C16.6398 23.04 15.8398 22.4 15.0398 22.4Z" fill="#CC4B4C"/>
</svg>
