<svg width="16" height="16" viewBox="0 0 16 16" fill="none" xmlns="http://www.w3.org/2000/svg">
<path d="M13.3335 7.33271H14.6668C14.6668 3.91271 12.0848 1.33337 8.66016 1.33337V2.66671C11.3682 2.66671 13.3335 4.62871 13.3335 7.33271Z" fill="#3E3A39"/>
<path d="M8.66685 5.33333C10.0689 5.33333 10.6669 5.93133 10.6669 7.33333H12.0002C12.0002 5.18333 10.8169 4 8.66685 4V5.33333ZM10.9482 8.962C10.8201 8.84556 10.6518 8.78347 10.4787 8.78882C10.3057 8.79417 10.1415 8.86654 10.0209 8.99066L8.42552 10.6313C8.04152 10.558 7.26952 10.3173 6.47485 9.52466C5.68019 8.72933 5.43952 7.95533 5.36819 7.574L7.00752 5.978C7.1318 5.85742 7.20428 5.69321 7.20963 5.52013C7.21498 5.34706 7.15278 5.17869 7.03619 5.05066L4.57285 2.342C4.45622 2.21357 4.29411 2.13567 4.12096 2.12484C3.94781 2.11401 3.77725 2.1711 3.64552 2.284L2.19885 3.52466C2.0836 3.64034 2.0148 3.7943 2.00552 3.95733C1.99552 4.124 1.80485 8.072 4.86619 11.1347C7.53685 13.8047 10.8822 14 11.8035 14C11.9382 14 12.0209 13.996 12.0429 13.9947C12.2059 13.9855 12.3597 13.9164 12.4749 13.8007L13.7149 12.3533C13.8278 12.2217 13.885 12.0512 13.8743 11.878C13.8636 11.7049 13.7859 11.5427 13.6575 11.426L10.9482 8.962Z" fill="#3E3A39"/>
</svg>
