<svg width="25" height="25" viewBox="0 0 25 25" fill="none" xmlns="http://www.w3.org/2000/svg">
<g opacity="0.4">
<path d="M7.95463 19.3181H4.54554C4.24416 19.3181 3.95512 19.1984 3.74201 18.9853C3.5289 18.7722 3.40918 18.4832 3.40918 18.1818V12.5C3.40918 11.8972 3.64863 11.3191 4.07485 10.8929C4.50107 10.4667 5.07914 10.2272 5.68191 10.2272H19.3183C19.921 10.2272 20.4991 10.4667 20.9253 10.8929C21.3515 11.3191 21.591 11.8972 21.591 12.5V18.1818C21.591 18.4832 21.4713 18.7722 21.2582 18.9853C21.0451 19.1984 20.756 19.3181 20.4546 19.3181H17.0455M7.95463 4.54541H17.0455V10.2272H7.95463V4.54541ZM7.95463 17.0454H17.0455V21.5909H7.95463V17.0454Z" stroke="#3E3A39" stroke-width="2" stroke-linejoin="round"/>
<path d="M6.818 14.7727C7.4456 14.7727 7.95437 14.264 7.95437 13.6364C7.95437 13.0088 7.4456 12.5 6.818 12.5C6.19041 12.5 5.68164 13.0088 5.68164 13.6364C5.68164 14.264 6.19041 14.7727 6.818 14.7727Z" fill="#3E3A39"/>
</g>
</svg>
