<svg width="20" height="20" viewBox="0 0 20 20" fill="none" xmlns="http://www.w3.org/2000/svg">
<g opacity="0.6">
<path d="M16.8 2H3.2C2.88174 2 2.57652 2.12643 2.35147 2.35147C2.12643 2.57652 2 2.88174 2 3.2V16.8C2 17.1183 2.12643 17.4235 2.35147 17.6485C2.57652 17.8736 2.88174 18 3.2 18H16.8C17.1183 18 17.4235 17.8736 17.6485 17.6485C17.8736 17.4235 18 17.1183 18 16.8V3.2C18 2.88174 17.8736 2.57652 17.6485 2.35147C17.4235 2.12643 17.1183 2 16.8 2Z" stroke="#3E3A39" stroke-width="2" stroke-linejoin="round"/>
<path d="M5 7.93897C6.38542 6.2723 8.05208 5.43896 10 5.43896C11.9479 5.43896 13.6146 6.2723 15 7.93897" stroke="#3E3A39" stroke-width="2" stroke-linecap="round"/>
<path d="M10 12.9165C10.3315 12.9165 10.6495 12.7848 10.8839 12.5504C11.1183 12.316 11.25 11.998 11.25 11.6665C11.25 11.335 11.1183 11.017 10.8839 10.7826C10.6495 10.5482 10.3315 10.4165 10 10.4165C9.66848 10.4165 9.35054 10.5482 9.11612 10.7826C8.8817 11.017 8.75 11.335 8.75 11.6665C8.75 11.998 8.8817 12.316 9.11612 12.5504C9.35054 12.7848 9.66848 12.9165 10 12.9165Z" fill="#3E3A39"/>
<path d="M7.91797 8.75L10.0046 11.6667" stroke="#3E3A39" stroke-width="2" stroke-linecap="round"/>
</g>
</svg>
