<svg width="20" height="20" viewBox="0 0 20 20" fill="none" xmlns="http://www.w3.org/2000/svg">
<g opacity="0.6">
<path d="M7.5 4.1665C7.5 4.82955 7.76339 5.46543 8.23223 5.93427C8.70107 6.40311 9.33696 6.6665 10 6.6665C10.663 6.6665 11.2989 6.40311 11.7678 5.93427C12.2366 5.46543 12.5 4.82955 12.5 4.1665C12.5 3.50346 12.2366 2.86758 11.7678 2.39874C11.2989 1.9299 10.663 1.6665 10 1.6665C9.33696 1.6665 8.70107 1.9299 8.23223 2.39874C7.76339 2.86758 7.5 3.50346 7.5 4.1665Z" stroke="#3E3A39" stroke-width="2" stroke-linecap="round" stroke-linejoin="round"/>
<path d="M16.6654 16.6665H3.33203C3.65591 14.4977 5.02756 6.6665 5.02756 6.6665H14.9698C14.9698 6.6665 16.3415 14.4977 16.6654 16.6665Z" stroke="#3E3A39" stroke-width="2" stroke-linecap="round"/>
</g>
</svg>
