<svg width="24" height="24" viewBox="0 0 24 24" fill="none" xmlns="http://www.w3.org/2000/svg">
<g clip-path="url(#clip0_381_281)">
<path d="M12 2.25C9.41473 2.25 6.93305 3.27786 5.10645 5.10568C3.27797 6.93424 2.25052 9.41409 2.25 12C2.25 14.5848 3.27832 17.0665 5.10645 18.8943C6.93305 20.7221 9.41473 21.75 12 21.75C14.5853 21.75 17.067 20.7221 18.8936 18.8943C20.7217 17.0665 21.75 14.5848 21.75 12C21.75 9.41518 20.7217 6.9335 18.8936 5.10568C17.067 3.27786 14.5853 2.25 12 2.25Z" fill="#ED6C00"/>
<path d="M6.66331 11.897C9.50605 10.6588 11.4012 9.84242 12.3488 9.44796C15.0575 8.32168 15.6196 8.12607 15.9867 8.11944C16.0675 8.11815 16.2473 8.1381 16.3646 8.23294C16.4621 8.31292 16.4895 8.42108 16.5032 8.49703C16.5154 8.57289 16.5321 8.7458 16.5184 8.88078C16.3722 10.4225 15.7369 14.1638 15.4139 15.8906C15.2784 16.6212 15.0087 16.8662 14.7482 16.8901C14.1815 16.9422 13.7519 16.5159 13.2034 16.1566C12.3457 15.594 11.8613 15.2439 11.028 14.695C10.0651 14.0606 10.6898 13.7119 11.2382 13.1421C11.3814 12.993 13.8768 10.7238 13.924 10.518C13.9301 10.4923 13.9362 10.3963 13.8783 10.3457C13.8219 10.295 13.7382 10.3124 13.6772 10.3261C13.5904 10.3456 12.2208 11.2517 9.56394 13.0443C9.17546 13.3115 8.82355 13.4418 8.50667 13.4349C8.15933 13.4275 7.48902 13.2381 6.99085 13.0763C6.38148 12.8778 5.8955 12.7729 5.93816 12.4357C5.95948 12.2602 6.20171 12.0806 6.66331 11.897Z" fill="white"/>
</g>
<defs>
<clipPath id="clip0_381_281">
<rect width="19.5" height="19.5" fill="white" transform="translate(2.25 2.25)"/>
</clipPath>
</defs>
</svg>
