<svg width="24" height="24" viewBox="0 0 24 24" fill="none" xmlns="http://www.w3.org/2000/svg">
<path fill-rule="evenodd" clip-rule="evenodd" d="M1.5 12C1.5 14.7836 2.60742 17.4562 4.57617 19.4246C6.54328 21.3931 9.21586 22.5 12 22.5C14.7841 22.5 17.4567 21.3931 19.4238 19.4246C21.3926 17.4562 22.5 14.7836 22.5 12C22.5 9.21635 21.3926 6.54377 19.4238 4.57535C17.4567 2.60693 14.7841 1.5 12 1.5C9.21586 1.5 6.54328 2.60693 4.57617 4.57535C2.60705 6.54456 1.50056 9.21518 1.5 12ZM5.91971 5.91882C4.30688 7.53172 3.40056 9.71908 3.4 12C3.4001 14.2794 4.30774 16.4695 5.92012 18.0816C7.53059 19.6931 9.71958 20.6 12 20.6C14.2804 20.6 16.4694 19.6931 18.0799 18.0816C19.6924 16.4694 20.6 14.2795 20.6 12C20.6 9.72048 19.6929 7.53117 18.0804 5.91897C16.47 4.30743 14.2804 3.4 12 3.4C9.71958 3.4 7.53017 4.30728 5.91971 5.91882Z" fill="#00A7DD"/>
<path d="M6.07482 11.6974C9.29665 10.3215 11.4445 9.41448 12.5185 8.97618C15.5884 7.72477 16.2255 7.50743 16.6416 7.50006C16.7331 7.49863 16.9368 7.5208 17.0698 7.62617C17.1803 7.71504 17.2114 7.83522 17.2269 7.9196C17.2407 8.0039 17.2597 8.19602 17.2442 8.34599C17.0784 10.059 16.3584 14.2159 15.9924 16.1346C15.8387 16.9464 15.5331 17.2186 15.2379 17.2452C14.5956 17.3031 14.1087 16.8294 13.4871 16.4301C12.515 15.805 11.966 15.416 11.0215 14.8062C9.93031 14.1013 10.6382 13.7139 11.2598 13.0808C11.4221 12.9151 14.2503 10.3938 14.3038 10.1651C14.3107 10.1365 14.3176 10.0299 14.252 9.97369C14.1881 9.91732 14.0931 9.93662 14.0241 9.95185C13.9257 9.97352 12.3734 10.9803 9.36226 12.9721C8.92198 13.269 8.52313 13.4138 8.164 13.4061C7.77034 13.3978 7.01063 13.1874 6.44604 13.0077C5.7554 12.7871 5.20461 12.6705 5.25296 12.2959C5.27713 12.1009 5.55166 11.9013 6.07482 11.6974Z" fill="#00A7DD"/>
</svg>
