<svg xmlns="http://www.w3.org/2000/svg" xmlns:xlink="http://www.w3.org/1999/xlink" viewBox="0,0,256,256" width="48px" height="48px" fill-rule="nonzero"><g fill="#30c920" fill-rule="nonzero" stroke="none" stroke-width="1" stroke-linecap="butt" stroke-linejoin="miter" stroke-miterlimit="10" stroke-dasharray="" stroke-dashoffset="0" font-family="none" font-weight="none" font-size="none" text-anchor="none" style="mix-blend-mode: normal"><g transform="scale(10.66667,10.66667)"><path d="M12,2c-0.547,0 -1.10492,0.04377 -1.66992,0.13477c-3.998,0.646 -7.27147,3.76747 -8.10547,7.73047c-0.569,2.7 -0.02353,5.24455 1.23047,7.31055l-0.4375,3.6543c-0.109,0.632 0.38747,1.16992 0.98047,1.16992c0.1,0 0.20459,-0.01583 0.30859,-0.04883l3.21289,-1.02148c1.349,0.679 2.86747,1.07031 4.48047,1.07031c0.629,0 1.27278,-0.05955 1.92578,-0.18555c4.078,-0.781 7.32213,-4.12352 7.95313,-8.22851c0.956,-6.224 -3.83591,-11.58594 -9.87891,-11.58594zM12,4c2.337,0 4.55122,1.01892 6.07422,2.79492c1.544,1.8 2.19217,4.10233 1.82617,6.48633c-0.499,3.247 -3.10861,5.94931 -6.34961,6.57031c-0.516,0.099 -1.03878,0.14844 -1.55078,0.14844c-1.247,0 -2.45203,-0.28747 -3.58203,-0.85547c-0.281,-0.141 -0.59039,-0.21289 -0.90039,-0.21289c-0.204,0 -0.40747,0.03075 -0.60547,0.09375l-1.73047,0.54883l0.25977,-2.16016c0.053,-0.445 -0.04534,-0.89239 -0.27734,-1.27539c-0.751,-1.237 -1.53042,-3.25833 -0.98242,-5.86133c0.668,-3.172 3.26775,-5.65097 6.46875,-6.16797c0.45,-0.073 0.90361,-0.10937 1.34961,-0.10937zM9.09766,6.99609c-0.22087,-0.00725 -0.43028,0.01102 -0.61328,0.04102c-0.442,0.072 -0.82592,0.34242 -1.04492,0.73242c-0.31692,0.56503 -0.49795,1.301 -0.41992,1.99219c0.00033,0.00207 0.00162,0.00379 0.00195,0.00586c0.0023,0.02001 -0.0008,0.04062 0.00195,0.06055c0.03916,0.28285 0.1214,0.57152 0.22266,0.86328c0.00221,0.00673 0.00558,0.01282 0.00781,0.01953c0.06496,0.18487 0.139,0.37139 0.22656,0.55859c0.7752,1.78384 2.14279,2.9965 2.18945,3.03711c0.01767,0.02052 1.17671,1.35033 2.91016,2.13867c0.53969,0.26797 1.07473,0.45798 1.58984,0.5293c0.709,0.098 1.47364,-0.09097 2.05664,-0.41797c0.391,-0.219 0.65847,-0.60097 0.73047,-1.04297c0.06,-0.366 0.08183,-0.84402 -0.07617,-1.29102c-0.046,-0.129 -0.13809,-0.24413 -0.24609,-0.32812c-0.535,-0.413 -1.16973,-0.70198 -1.55273,-0.83398c-0.261,-0.09 -0.54514,-0.02103 -0.74414,0.16797l-0.0957,0.0957l-0.66016,0.69336c0,0 -0.01625,-0.00095 -0.03125,-0.00195l-0.42187,0.42188c-1.0878,-0.61337 -2.00976,-1.50586 -2.00976,-1.50586l-0.02344,-0.02539l-0.02539,-0.02344c0,0 -0.89121,-0.92795 -1.51367,-2.01367l0.42383,-0.42383c-0.001,-0.015 0,-0.03125 0,-0.03125l0.69141,-0.66016l0.0957,-0.0957c0.189,-0.199 0.25992,-0.48509 0.16992,-0.74609c-0.132,-0.383 -0.42294,-1.01578 -0.83594,-1.55078c-0.084,-0.108 -0.19912,-0.20009 -0.32812,-0.24609c-0.2235,-0.079 -0.45491,-0.11189 -0.67578,-0.11914z"></path></g></g></svg>