<svg width="23" height="23" viewBox="0 0 23 23" fill="none" xmlns="http://www.w3.org/2000/svg">
<path d="M6.95211 17.7234L7.64594 18.1287C8.81595 18.8113 10.1468 19.1695 11.5013 19.1666C13.0176 19.1666 14.4999 18.717 15.7607 17.8746C17.0215 17.0321 18.0041 15.8348 18.5844 14.4339C19.1647 13.033 19.3165 11.4915 19.0207 10.0043C18.7249 8.51708 17.9947 7.15101 16.9225 6.07881C15.8503 5.0066 14.4842 4.27643 12.997 3.98061C11.5098 3.68479 9.96831 3.83661 8.56741 4.41688C7.16651 4.99715 5.96914 5.97981 5.12672 7.24059C4.28429 8.50136 3.83465 9.98364 3.83465 11.5C3.83185 12.8549 4.19045 14.1861 4.87348 15.3563L5.2779 16.0501L4.65211 18.3511L6.95211 17.7234ZM1.92182 21.0833L3.21748 16.3223C2.36357 14.8589 1.91502 13.1943 1.91798 11.5C1.91798 6.20708 6.20844 1.91663 11.5013 1.91663C16.7942 1.91663 21.0847 6.20708 21.0847 11.5C21.0847 16.7928 16.7942 21.0833 11.5013 21.0833C9.80771 21.0862 8.14387 20.638 6.6809 19.7848L1.92182 21.0833ZM8.04269 7.00346C8.17175 6.99451 8.30048 6.99324 8.4289 6.99963C8.48065 7.00346 8.5324 7.00857 8.58415 7.01496C8.73652 7.03221 8.90423 7.12517 8.96078 7.25358C9.24636 7.90206 9.52364 8.55372 9.79261 9.20858C9.85203 9.35425 9.81657 9.54113 9.70348 9.72321C9.64598 9.81617 9.5559 9.9465 9.45144 10.0797C9.34315 10.2187 9.11027 10.4736 9.11027 10.4736C9.11027 10.4736 9.0154 10.5867 9.05182 10.7275C9.06523 10.7812 9.10932 10.8588 9.14957 10.924L9.20611 11.015C9.45144 11.4243 9.78111 11.8392 10.1836 12.2302C10.2986 12.3414 10.4107 12.4554 10.5315 12.5618C10.98 12.9576 11.4879 13.2805 12.0361 13.5201L12.0409 13.522C12.1223 13.5575 12.1635 13.5767 12.2824 13.6275C12.3418 13.6524 12.4028 13.6735 12.4654 13.6907C12.4884 13.6971 12.5117 13.7006 12.5354 13.7013C12.59 13.7033 12.6443 13.692 12.6936 13.6683C12.7429 13.6446 12.7856 13.6092 12.8181 13.5652C13.5109 12.7257 13.5752 12.671 13.5799 12.671V12.673C13.6281 12.6279 13.6853 12.5937 13.7478 12.5727C13.8103 12.5517 13.8766 12.5444 13.9422 12.5513C14.001 12.5538 14.0575 12.5666 14.1118 12.5896C14.6207 12.8225 15.4535 13.1857 15.4535 13.1857L16.0112 13.4358C16.1052 13.4808 16.1904 13.5872 16.1933 13.6898C16.1971 13.754 16.2029 13.8575 16.1809 14.0472C16.1502 14.2954 16.0754 14.5935 16.0007 14.7497C15.9489 14.8559 15.881 14.9535 15.7994 15.0391C15.7027 15.1405 15.5968 15.2329 15.4832 15.3151C15.404 15.3739 15.364 15.4026 15.3634 15.4013C15.2442 15.477 15.1218 15.5473 14.9964 15.6122C14.7495 15.7429 14.477 15.8182 14.1981 15.8326C14.0208 15.8422 13.8435 15.8556 13.6652 15.846C13.6576 15.846 13.1209 15.7626 13.1209 15.7626C11.7584 15.4042 10.4984 14.7328 9.4409 13.8019C9.22432 13.6112 9.02307 13.4061 8.81798 13.202C7.96698 12.3538 7.32202 11.4386 6.93007 10.5742C6.73122 10.1499 6.62348 9.6886 6.61382 9.22008C6.61021 8.63813 6.80075 8.07159 7.15527 7.61008C7.22523 7.52 7.29136 7.42608 7.4054 7.31779C7.52615 7.20279 7.60378 7.14146 7.68715 7.09929C7.79835 7.04467 7.9191 7.01212 8.04269 7.00346Z" fill="#00C250"/>
</svg>
