<svg width="24" height="24" viewBox="0 0 24 24" fill="none" xmlns="http://www.w3.org/2000/svg">
<path d="M22.876 6.49556C22.7455 6.0132 22.4909 5.57346 22.1376 5.22011C21.7843 4.86677 21.3445 4.61214 20.8622 4.4816C19.0963 4 11.9893 4 11.9893 4C11.9893 4 4.88191 4.01458 3.11604 4.49618C2.63369 4.62673 2.19395 4.88137 1.84061 5.23473C1.48728 5.58809 1.23268 6.02786 1.10218 6.51022C0.568042 9.64782 0.360842 14.4288 1.11684 17.4409C1.24736 17.9232 1.50197 18.363 1.8553 18.7163C2.20863 19.0697 2.64836 19.3243 3.13071 19.4548C4.89657 19.9364 12.0038 19.9364 12.0038 19.9364C12.0038 19.9364 19.1109 19.9364 20.8767 19.4548C21.359 19.3243 21.7988 19.0697 22.1521 18.7163C22.5055 18.363 22.7601 17.9233 22.8906 17.4409C23.454 14.2988 23.6276 9.5208 22.876 6.49556Z" fill="#ED6C00"/>
<path d="M9.72656 15.3831L15.6224 11.9682L9.72656 8.55322V15.3831Z" fill="white"/>
</svg>
