<svg width="126" height="44" viewBox="0 0 126 44" fill="none" xmlns="http://www.w3.org/2000/svg">
<path fill-rule="evenodd" clip-rule="evenodd" d="M63.9888 32.0889C63.9208 32.1993 63.8461 32.3054 63.7655 32.4069C63.6072 32.6344 63.449 32.8268 63.3192 32.9867C63.1894 33.1465 63.0961 33.2911 63.0027 33.4263C62.9386 33.5583 62.8446 33.6897 62.7789 33.8177C62.7133 33.9458 62.6204 34.081 62.5239 34.2321C62.4598 34.3697 62.3658 34.5262 62.2685 34.7027C62.2044 34.8833 62.11 35.0497 62.0443 35.2072C61.7805 35.7102 61.5459 36.228 61.3422 36.7586C61.0866 37.3908 60.736 38.0258 60.8951 38.2509C60.9592 38.3471 61.0234 38.3956 61.37 38.3049C61.4341 38.2882 61.4984 38.2658 61.5625 38.2435C61.6174 38.2282 61.6702 38.2068 61.7205 38.1798C61.9801 38.0626 62.2177 37.9011 62.4227 37.7026C62.6458 37.4937 62.8694 37.2791 63.0931 37.058C63.0931 37.0325 63.1244 37.0156 63.1885 37.0156C63.227 37.0114 63.2661 37.0187 63.3002 37.037C63.3344 37.0553 63.3623 37.0837 63.3802 37.1181C63.4291 37.1608 63.4628 37.2184 63.4761 37.282C63.4761 37.3138 63.4118 37.3846 63.3176 37.4975C63.2543 37.6065 63.1263 37.7249 63.0305 37.8498C62.9031 37.9778 62.775 38.0996 62.6792 38.2117L62.5834 38.3049L62.4559 38.4497C62.2964 38.6052 62.1258 38.7484 61.9454 38.8788C61.8052 39.0206 61.628 39.1199 61.4342 39.1647C61.2173 39.2332 60.9911 39.2677 60.7637 39.2672C60.6642 39.2663 60.5662 39.2432 60.4766 39.1996C60.3928 39.1582 60.3171 39.1019 60.2533 39.0334C60.2216 38.969 60.1578 38.9012 60.1578 38.8272C60.124 38.7682 60.1021 38.7033 60.0937 38.6357C60.0957 38.5611 60.1064 38.4866 60.1254 38.4144C60.1578 38.2792 60.1578 38.138 60.1895 37.9853C60.2253 37.8444 60.2464 37.7003 60.2533 37.555C60.2726 37.4839 60.2835 37.4104 60.2857 37.3368V37.2576C60.1071 37.4176 59.9367 37.5864 59.7753 37.7639C59.5972 37.9479 59.4054 38.1177 59.201 38.2715C59.0812 38.3673 58.9527 38.4518 58.8177 38.5243C58.6996 38.6118 58.5713 38.6841 58.4355 38.7398C58.3714 38.7581 58.3076 38.7812 58.2435 38.8035C58.1811 38.8202 58.117 38.8309 58.0526 38.8354C57.944 38.8314 57.837 38.8089 57.7361 38.7686C57.634 38.7195 57.5374 38.6592 57.4486 38.5888C57.3693 38.5087 57.295 38.4241 57.2256 38.3352C57.1606 38.2466 57.1072 38.1495 57.0672 38.047C57.0348 37.9482 57.0132 37.8462 57.003 37.7426V37.4929C56.9985 37.3318 57.0094 37.1707 57.0355 37.0117C57.0809 36.8187 57.1809 36.6426 57.323 36.505C57.4282 36.3752 57.5455 36.2561 57.6735 36.1489C57.7876 36.0339 57.9163 35.9346 58.0564 35.8537C58.0889 35.8251 58.184 35.774 58.3122 35.6802C58.4705 35.5943 58.6288 35.5036 58.8227 35.4145C58.9886 35.3237 59.1593 35.2422 59.334 35.1699C59.4651 35.1105 59.6053 35.0735 59.7486 35.0608C59.8284 35.0576 59.9068 35.0813 59.9716 35.1283C60.0408 35.1798 60.1051 35.238 60.1632 35.3019C60.1949 35.3695 60.2274 35.4395 60.2591 35.5174C60.2923 35.5789 60.3141 35.6461 60.3232 35.7155C60.3231 35.7637 60.3111 35.8111 60.2888 35.8537C60.2665 35.8964 60.2343 35.9327 60.1949 35.9601C60.1057 35.998 60.0199 36.0444 59.9391 36.098C59.7388 36.2003 59.547 36.318 59.3649 36.4502C59.1323 36.6182 58.9085 36.798 58.6944 36.9892C58.4811 37.1829 58.2787 37.3888 58.0881 37.6051C57.9222 37.7739 57.792 37.9744 57.7052 38.195C57.7052 38.2332 57.7694 38.2525 57.8327 38.2525C57.9666 38.2416 58.0968 38.2033 58.2156 38.1402C58.3712 38.0619 58.5204 37.9716 58.662 37.87C58.8202 37.7642 58.9492 37.6645 59.0766 37.5651C59.204 37.4657 59.2996 37.3831 59.3637 37.3267C59.4916 37.2298 59.6096 37.1199 59.7154 36.9989C59.8672 36.8673 60.006 36.7215 60.13 36.5632C60.2688 36.4135 60.3967 36.254 60.5129 36.086C60.6181 35.944 60.7043 35.7886 60.7688 35.6238C60.9919 35.0671 61.2156 34.5105 61.4388 33.9657C61.6579 33.4404 61.9032 32.9265 62.1734 32.4259C62.2051 32.3265 62.2689 32.208 62.3315 32.0632C62.394 31.9185 62.4274 31.6719 62.5865 31.6528C62.9355 31.6265 64.3719 31.3095 63.9888 32.0889ZM66.7974 37.4071C66.6547 37.4071 66.5176 37.3516 66.4144 37.2525C66.309 37.14 66.2523 36.9903 66.2564 36.8358C66.2532 36.6806 66.3097 36.5302 66.4144 36.416C66.5187 36.3194 66.6555 36.266 66.7974 36.2665C66.9522 36.267 67.1012 36.3276 67.2124 36.4358C67.267 36.4858 67.3094 36.5475 67.3368 36.6164C67.3642 36.6853 67.3757 36.7595 67.3704 36.8335C67.3798 36.9107 67.3702 36.9888 67.3426 37.0615C67.315 37.1341 67.2706 37.1989 67.2124 37.2502C67.0971 37.35 66.9496 37.4047 66.7974 37.4043V37.4071ZM89.6158 35.8638C89.6229 36.0364 89.6012 36.2091 89.5517 36.3745C89.5153 36.5873 89.4511 36.7943 89.3604 36.99C89.2907 37.2024 89.2051 37.4095 89.1046 37.609C88.9771 37.811 88.8815 37.981 88.7881 38.1154L88.5968 38.3954C88.5164 38.4763 88.4416 38.5631 88.3734 38.6548C88.3054 38.7261 88.2302 38.7901 88.1493 38.8462C88.0731 38.8961 87.9848 38.9237 87.8939 38.9258C87.8393 38.9246 87.7853 38.9125 87.7355 38.8901C87.6803 38.8687 87.6275 38.842 87.5774 38.8105C87.5133 38.7787 87.4807 38.7472 87.419 38.7146C87.3749 38.6907 87.3323 38.6641 87.2915 38.635C87.1307 38.5149 86.9998 38.359 86.9085 38.1798C86.8152 38.0204 86.7506 37.8457 86.7172 37.6638C86.6848 37.484 86.6847 37.3042 86.6531 37.1213C86.6531 36.9391 86.6206 36.769 86.6206 36.6052C86.4183 36.7783 86.2364 36.9741 86.0785 37.1888C85.9202 37.4091 85.7271 37.6281 85.5672 37.8397C85.3879 38.0388 85.1959 38.2261 84.9926 38.4004C84.808 38.5549 84.5887 38.6615 84.3538 38.7119C84.3222 38.7182 84.2904 38.7287 84.2263 38.7414C84.1939 38.7541 84.1308 38.7659 84.0992 38.7794C84.0558 38.7884 84.0129 38.8005 83.9709 38.8148C83.9399 38.8242 83.9075 38.8284 83.8751 38.828C83.8464 38.8302 83.8176 38.8268 83.7904 38.8175C83.7632 38.8082 83.7384 38.7933 83.717 38.774C83.6635 38.7438 83.6191 38.6995 83.5887 38.6458C83.5571 38.5918 83.5245 38.5361 83.4929 38.4789V38.32C83.5082 38.1892 83.5405 38.0608 83.5887 37.9383C83.6439 37.7153 83.7184 37.4973 83.8117 37.2875C83.9075 37.0377 84.0043 36.7801 84.1286 36.505C84.2243 36.2322 84.3517 35.9826 84.445 35.7551C84.5732 35.5276 84.6689 35.3407 84.7615 35.1936C84.8541 35.0464 84.9196 34.9757 84.9845 34.9757C85.0384 34.9774 85.0919 34.9871 85.1429 35.0045C85.2101 35.0253 85.2746 35.0543 85.3346 35.0911C85.403 35.134 85.4669 35.1836 85.5259 35.239C85.5643 35.3008 85.5864 35.3713 85.59 35.4441L85.0471 37.5119C85.0788 37.5254 85.1105 37.528 85.1105 37.5216C85.1105 37.5153 85.1429 37.5086 85.1429 37.503C85.3372 37.3476 85.5188 37.1772 85.6859 36.9927C85.8441 36.8122 85.9731 36.6329 86.1322 36.4595C86.2604 36.2893 86.3877 36.1298 86.5151 35.9827C86.6337 35.839 86.7735 35.7142 86.9298 35.6134C86.9298 35.5943 86.9623 35.5847 87.0256 35.5815C87.0889 35.5783 87.1215 35.5753 87.1531 35.5753C87.2706 35.5738 87.3879 35.5835 87.5036 35.604C87.5939 35.6097 87.6817 35.637 87.7594 35.6837C87.7872 35.6925 87.8128 35.7067 87.8348 35.726C87.8567 35.7453 87.8742 35.769 87.8866 35.7955C87.9164 35.8348 87.9382 35.8797 87.9507 35.9275C87.9228 36.1002 87.9119 36.2754 87.9182 36.4502V37.0498C87.9182 37.259 87.9507 37.4697 87.9507 37.682C87.9831 37.8999 87.9832 38.1052 88.0148 38.3072C88.07 38.2575 88.1137 38.1961 88.1424 38.1274C88.1748 38.0376 88.2382 37.9447 88.2707 37.8389C88.3031 37.7331 88.3661 37.6305 88.3978 37.5271C88.3997 37.4359 88.4216 37.3462 88.4619 37.2645C88.5397 37.0821 88.5931 36.8903 88.6204 36.6937C88.688 36.4676 88.7411 36.2371 88.7788 36.004C88.8054 35.9347 88.8165 35.8603 88.8113 35.7862C88.8437 35.7122 88.8434 35.6356 88.875 35.5648V35.4305C88.9067 35.3509 88.9067 35.2667 88.9392 35.1808C88.9716 35.0949 89.0026 35.0138 89.035 34.9462C89.0675 34.8786 89.0992 34.8437 89.1625 34.8437C89.1992 34.8467 89.2339 34.8608 89.2622 34.8845C89.2906 34.9081 89.3109 34.94 89.3206 34.9757C89.3847 35.0648 89.4165 35.1418 89.479 35.2142C89.5221 35.3041 89.5543 35.3988 89.5748 35.4965C89.6004 35.6153 89.611 35.7369 89.6065 35.8584L89.6158 35.8638ZM106.307 38.5965C106.454 38.7129 106.624 38.7962 106.806 38.84C106.988 38.8838 107.177 38.8874 107.361 38.8505C107.489 38.8314 107.425 38.715 107.425 38.7119C107.361 38.6546 107.267 38.623 107.233 38.553C107.109 38.3616 107.051 38.1343 107.069 37.9065C107.086 37.6786 107.178 37.4628 107.329 37.2925C107.425 37.1796 107.487 37.0578 107.584 36.9306C107.68 36.7564 108.127 36.2823 108.127 36.1089C108.191 35.6214 108.127 35.5952 107.81 35.2914C107.459 34.9328 107.172 35.2055 106.884 35.6405C106.735 35.8791 106.608 36.1302 106.502 36.3912C106.383 36.658 106.277 36.9312 106.185 37.209C106.108 37.4529 106.065 37.7062 106.057 37.962C106.08 38.1933 106.168 38.413 106.313 38.5942L106.307 38.5965ZM109.02 33.975C109.025 33.8941 109.014 33.8132 108.988 33.7366C108.973 33.6578 108.94 33.5836 108.892 33.5195C108.829 33.4543 108.753 33.4038 108.669 33.3715C108.578 33.3345 108.479 33.3232 108.382 33.3389L108.318 33.3494C108.207 33.3597 108.099 33.3919 108.001 33.4445C107.91 33.503 107.824 33.5702 107.745 33.6445C107.677 33.7218 107.624 33.8103 107.587 33.9066C107.526 33.993 107.493 34.0959 107.491 34.2018C107.471 34.286 107.479 34.3748 107.513 34.4542C107.548 34.5336 107.607 34.5994 107.683 34.6418C107.756 34.6943 107.839 34.7311 107.927 34.7505C108.015 34.7699 108.106 34.7716 108.194 34.7548C108.282 34.7433 108.368 34.7179 108.449 34.6798C108.544 34.6442 108.63 34.59 108.704 34.5206C108.794 34.4583 108.87 34.3789 108.929 34.2868C108.993 34.1935 109.026 34.0823 109.024 33.9688L109.02 33.975ZM124.848 34.5462C124.829 34.5632 124.814 34.5837 124.803 34.6068C124.792 34.6299 124.785 34.655 124.784 34.6806C124.747 34.7347 124.705 34.7846 124.657 34.8293C124.512 34.9674 124.353 35.0897 124.182 35.1944C124.041 35.2864 123.891 35.364 123.735 35.4258C123.591 35.4867 123.442 35.5317 123.289 35.5602C123.152 35.5905 123.013 35.6111 122.874 35.6215C122.746 35.6398 122.618 35.813 122.618 35.813L122.586 35.8355V35.8607L122.554 35.8864V35.9085L122.521 35.9213C122.085 36.5228 121.78 37.2106 121.628 37.9391C121.627 37.9698 121.632 38.0005 121.643 38.0292C121.654 38.0579 121.671 38.084 121.692 38.1061C121.738 38.1417 121.793 38.164 121.85 38.1705C121.914 38.1799 121.978 38.1829 122.042 38.1798C122.106 38.1798 122.17 38.1729 122.2 38.1729C122.362 38.1681 122.522 38.1392 122.675 38.087C122.861 38.045 123.035 37.9614 123.185 37.8428C123.351 37.7325 123.51 37.6115 123.66 37.4809C123.764 37.3815 123.9 37.3233 124.043 37.317C124.171 37.317 124.267 37.3455 124.267 37.4028C124.293 37.4611 124.304 37.5255 124.298 37.5892C124.307 37.651 124.296 37.7135 124.267 37.7686C124.26 37.8145 124.237 37.8568 124.202 37.8874C124.166 37.9322 124.123 37.9713 124.075 38.0035C124.015 38.0531 123.962 38.11 123.917 38.1729C123.77 38.3234 123.597 38.4463 123.406 38.5356C123.189 38.6443 122.965 38.7386 122.736 38.8179C122.506 38.8959 122.272 38.9577 122.033 39.0031C121.834 39.0462 121.631 39.0688 121.427 39.0707C121.352 39.0705 121.277 39.0642 121.203 39.0517C121.113 39.0442 121.026 39.017 120.948 38.972C120.864 38.9412 120.795 38.8793 120.756 38.7988C120.692 38.7097 120.649 38.6077 120.628 38.4998L121.713 35.7163C121.713 35.7028 121.713 35.6876 121.681 35.6685C121.553 35.6518 121.457 35.6388 121.298 35.6293C121.173 35.6112 121.054 35.5679 120.947 35.5015C120.883 35.4697 120.851 35.4117 120.788 35.3345C120.726 35.2574 120.692 35.1704 120.63 35.0813C120.597 34.9915 120.566 34.8987 120.534 34.8049C120.51 34.7305 120.499 34.6524 120.502 34.5742C120.502 34.478 120.502 34.415 120.566 34.3975C120.627 34.373 120.693 34.3631 120.758 34.3688L122.225 34.5136C122.294 34.3778 122.348 34.2344 122.384 34.0864C122.448 33.9361 122.511 33.7955 122.575 33.6674C122.703 33.4137 122.799 33.1378 122.959 32.8364C123.086 32.5382 123.214 32.2534 123.341 31.9766C123.404 31.8816 123.457 31.7807 123.5 31.6753C123.561 31.5489 123.636 31.4295 123.723 31.3196C123.79 31.208 123.877 31.1095 123.979 31.0279C124.08 30.9511 124.202 30.9083 124.329 30.906C124.496 30.9093 124.66 30.9555 124.804 31.0404C124.87 31.0828 124.924 31.1408 124.963 31.2089C125.002 31.277 125.024 31.3534 125.027 31.4318C125.018 31.5434 124.985 31.6518 124.931 31.7499C124.869 31.8913 124.795 32.027 124.708 32.1549C124.613 32.2925 124.55 32.4172 124.484 32.5269C124.432 32.5958 124.389 32.6714 124.357 32.7514C124.165 33.0424 124.006 33.334 123.846 33.6259C123.688 33.8756 123.53 34.1231 123.399 34.3641V34.38H123.367C123.303 34.5041 123.399 34.543 123.431 34.5462L124.58 34.4309C124.623 34.431 124.666 34.4343 124.708 34.4406C124.757 34.4644 124.8 34.4983 124.835 34.54L124.848 34.5462ZM94.5296 36.6444C94.4723 36.7893 94.4296 36.9395 94.4017 37.0929C94.2434 37.683 93.6678 39.0523 95.0401 39.174C95.1312 38.8573 95.2062 38.5361 95.2642 38.2117C95.4225 37.655 95.5808 37.0727 95.7391 36.4929C96.6307 36.3808 97.5149 36.2172 98.3877 36.0025C98.1696 36.6609 97.9884 37.331 97.8447 38.0098C97.5891 39.2282 98.7058 39.5748 99.4086 38.7088C99.4403 38.6897 99.472 38.6635 99.472 38.6412C99.3896 38.5909 99.3225 38.5192 99.2776 38.4334C99.2327 38.3477 99.2119 38.2513 99.2173 38.1546C99.2059 37.871 99.2272 37.5871 99.2807 37.3084C99.3764 36.9108 99.4721 36.5129 99.5972 36.1248C99.7555 35.6532 99.9137 35.1911 100.108 34.7353C100.299 34.2454 100.522 33.7643 100.745 33.2927C100.968 32.8505 101.224 32.418 101.48 32.0108V31.9918C100.841 31.2283 100.491 31.4882 100.139 32.0489C99.9162 32.4083 99.7245 32.7836 99.533 33.1622C99.3099 33.6147 99.1183 34.0793 98.926 34.5478C98.7985 34.8238 98.7029 35.1221 98.5755 35.4363C98.4815 35.4131 98.3841 35.4067 98.288 35.4173C97.5543 35.4594 96.7845 35.4816 96.054 35.5039C96.2456 34.9074 96.4688 34.3269 96.6928 33.7781C96.8511 33.3741 97.6818 31.8953 96.8199 31.5367C96.6743 31.4879 96.519 31.4774 96.3682 31.506C96.2174 31.5345 96.0762 31.6011 95.9582 31.6998C96.2748 31.8588 95.5118 33.9767 94.9365 35.5291C94.5218 35.5386 94.1069 35.5516 93.7231 35.5675C93.6475 35.5655 93.5722 35.5763 93.5002 35.5994C93.4361 35.6185 93.4044 35.6826 93.436 35.7924C93.5642 36.6736 94.0747 36.6969 94.5219 36.6452L94.5296 36.6444ZM102.731 35.3613C102.415 35.4607 101.806 35.9292 101.806 36.1885C101.87 36.2982 102.635 35.9865 102.923 35.6914C103.146 35.4799 102.987 35.2874 102.731 35.3613ZM101.04 36.1178C101.072 36.0858 101.095 36.0449 101.104 36.0001C101.2 35.8554 101.262 35.7177 101.359 35.592C101.563 35.3407 101.812 35.1301 102.093 34.9703C102.337 34.8337 102.611 34.7616 102.891 34.761C103.025 34.7513 103.159 34.7753 103.282 34.8309C103.404 34.8864 103.511 34.9716 103.593 35.079C103.655 35.1708 103.688 35.2791 103.689 35.3901C103.784 35.9897 103.113 36.3619 102.699 36.5512C102.392 36.6907 102.071 36.7973 101.742 36.8692C101.625 36.8894 101.521 36.9532 101.45 37.0479C101.379 37.1426 101.346 37.2611 101.359 37.3791C101.386 37.4906 101.454 37.5873 101.55 37.6494C102.11 37.8725 102.728 37.9006 103.306 37.729C103.976 37.5443 104.583 37.1781 105.06 36.6704C105.077 36.6353 105.105 36.6069 105.14 36.59C105.174 36.5731 105.214 36.5689 105.252 36.5776C105.316 36.6062 105.347 36.7157 105.347 36.7888C105.347 37.5499 104.455 38.2843 103.976 38.5158C103.476 38.7449 102.929 38.8467 102.381 38.8128C101.886 38.794 101.417 38.5854 101.071 38.2299C100.893 38.0336 100.782 37.7849 100.755 37.5205C100.724 37.0346 100.823 36.5497 101.042 36.1155L101.04 36.1178ZM80.1039 35.3613C80.3596 35.2874 80.5188 35.4799 80.2956 35.6914C80.0083 35.9865 79.2421 36.2982 79.1788 36.1885C79.1788 35.9292 79.785 35.4607 80.1039 35.3613ZM78.4423 36.1178C78.2103 36.5481 78.1005 37.0344 78.1254 37.5232C78.1524 37.7877 78.2637 38.0361 78.4423 38.2323C78.7844 38.5929 79.2547 38.8029 79.7504 38.8155C80.2985 38.8495 80.8466 38.7471 81.3459 38.5173C81.8208 38.2867 82.7181 37.5523 82.7181 36.7912C82.7181 36.718 82.6864 36.6093 82.6223 36.5799C82.5265 36.5481 82.4642 36.625 82.3993 36.6727C81.939 37.186 81.34 37.5539 80.6755 37.7313C80.098 37.903 79.4801 37.8749 78.9203 37.6517C78.8244 37.5895 78.7557 37.4929 78.7287 37.3814C78.7167 37.2586 78.7537 37.136 78.8314 37.0405C78.9091 36.945 79.0212 36.8842 79.1433 36.8716C79.4608 36.7946 79.7705 36.6882 80.0684 36.5535C80.5147 36.3642 81.1534 35.9921 81.0901 35.3924C81.0635 35.2827 81.0202 35.1778 80.9618 35.0813C80.8824 34.9715 80.7762 34.8847 80.653 34.8289C80.5299 34.7731 80.3945 34.7504 80.2601 34.7633C79.9808 34.764 79.7065 34.8361 79.4625 34.9726C79.1852 35.1246 78.9452 35.3369 78.7603 35.5943C78.6496 35.7191 78.5534 35.8561 78.4732 36.0025C78.4732 36.0406 78.4415 36.082 78.4415 36.1201L78.4423 36.1178ZM53.1964 35.3613C52.8798 35.4607 52.2713 35.9292 52.2713 36.1885C52.3354 36.2982 53.1015 35.9865 53.3888 35.6914C53.612 35.4799 53.452 35.2874 53.1964 35.3613ZM51.5347 36.1178C51.5347 36.0757 51.5664 36.0383 51.5664 36.0001C51.6622 35.8554 51.7245 35.7177 51.8218 35.592C52.0184 35.3335 52.269 35.1214 52.5557 34.9703C52.7999 34.8338 53.0745 34.7617 53.354 34.761C53.4881 34.7513 53.6225 34.7753 53.7451 34.8309C53.8676 34.8864 53.9746 34.9716 54.0562 35.079C54.1185 35.1706 54.1516 35.2791 54.1516 35.3901C54.2474 35.9897 53.577 36.3619 53.1624 36.5512C52.8554 36.6906 52.5347 36.7971 52.2056 36.8692C52.0892 36.8894 51.985 36.9532 51.9138 37.0479C51.8427 37.1426 51.81 37.2611 51.8226 37.3791C51.849 37.4906 51.9175 37.5874 52.0135 37.6494C52.5733 37.8725 53.1912 37.9006 53.7687 37.729C54.4332 37.5515 55.0322 37.1837 55.4925 36.6704C55.5558 36.6219 55.6205 36.5458 55.7155 36.5776C55.7796 36.6062 55.8113 36.7157 55.8113 36.7888C55.8113 37.5499 54.9171 38.2843 54.4391 38.5158C53.9396 38.7449 53.3916 38.8467 52.8436 38.8128C52.3479 38.8001 51.8776 38.5906 51.5355 38.2299C51.359 38.0282 51.2377 37.7836 51.1839 37.5205C51.1826 37.0299 51.3036 36.5472 51.5355 36.1155L51.5347 36.1178ZM47.5128 35.3613C47.1614 35.4607 46.5553 35.9292 46.5877 36.1885C46.6202 36.2982 47.4168 35.9865 47.6724 35.6914C47.8956 35.4799 47.7684 35.2874 47.5144 35.3613H47.5128ZM45.8214 36.1178C45.8531 36.0757 45.8531 36.0383 45.8848 36.0001C45.954 35.8547 46.0396 35.7176 46.1402 35.592C46.3252 35.3348 46.5652 35.1225 46.8424 34.9703C47.0879 34.8377 47.3612 34.7658 47.6399 34.761C47.7744 34.7481 47.9098 34.7704 48.0329 34.8262C48.1561 34.882 48.2627 34.9692 48.3421 35.079C48.4005 35.1753 48.4436 35.2803 48.4696 35.3901C48.5337 35.9897 47.895 36.3619 47.4479 36.5512C47.15 36.6859 46.8403 36.7923 46.5228 36.8692C46.4639 36.8764 46.4069 36.8954 46.3555 36.9251C46.3041 36.9549 46.2591 36.9948 46.2233 37.0424C46.1876 37.09 46.162 37.1442 46.1476 37.202C46.1332 37.2599 46.1302 37.3202 46.1395 37.3791C46.1403 37.4341 46.1554 37.4878 46.1831 37.5352C46.2109 37.5826 46.2505 37.6219 46.2979 37.6494C46.8577 37.8725 47.4756 37.9006 48.053 37.729C48.7235 37.5442 49.3309 37.178 49.8086 36.6704C49.8402 36.6219 49.9361 36.5458 50.0002 36.5776C50.0643 36.6094 50.0957 36.7157 50.1274 36.7888C50.0443 37.1671 49.8743 37.5203 49.6304 37.8203C49.3866 38.1202 49.0757 38.3586 48.7235 38.5158C48.2237 38.745 47.6755 38.8468 47.1272 38.8128C46.6329 38.7939 46.1649 38.5853 45.8191 38.2299C45.6404 38.0339 45.5294 37.785 45.5026 37.5205C45.4773 37.0317 45.5868 36.5457 45.8191 36.1155L45.8214 36.1178ZM73.9374 32.3887C74.085 34.1474 74.4733 35.8772 75.0912 37.5294C75.1553 37.1866 75.2497 36.809 75.347 36.3947L75.4746 35.9644C75.6077 35.4865 75.7675 35.0165 75.9533 34.5567C76.1116 34.0843 76.304 33.6451 76.4638 33.2379C76.6553 32.8307 76.8469 32.4785 77.0067 32.1731C77.1169 31.931 77.2787 31.7164 77.4813 31.5448C77.5129 31.5162 77.5772 31.5322 77.7046 31.5902C77.8406 31.6535 77.969 31.7319 78.0876 31.824C78.2033 31.9193 78.3093 32.0257 78.4041 32.1421C78.4998 32.255 78.5315 32.3474 78.4682 32.4182C78.2269 32.8085 78.014 33.2154 77.8306 33.6364C77.6391 34.0857 77.4475 34.531 77.2877 34.9835C77.1261 35.4085 76.9874 35.8423 76.8727 36.2825C76.7528 36.6401 76.6674 37.0082 76.6172 37.3822C76.5536 37.6248 76.5318 37.8767 76.5531 38.1266C76.5531 38.3072 76.6173 38.3796 76.7115 38.355C76.8698 38.3097 76.9344 38.336 76.9028 38.4346C76.8555 38.5604 76.7912 38.6788 76.7115 38.7868C76.5969 38.9285 76.4683 39.0584 76.3282 39.1748C76.2005 39.2967 76.1049 39.3574 76.0411 39.3569C75.932 39.3516 75.8248 39.3267 75.7246 39.2831C75.6151 39.2318 75.5094 39.1726 75.4081 39.1064C75.3017 39.0572 75.2043 38.99 75.1206 38.9076C75.0248 38.8408 74.9923 38.7957 74.9923 38.7662C74.1478 37.3297 73.6255 35.7253 73.4613 34.0651C73.4288 33.5879 73.2371 33.731 73.1096 34.0841C72.6422 35.1833 72.2376 36.3082 71.8974 37.4537C71.8331 37.7527 71.7691 38.0214 71.7058 38.2595C71.6417 38.498 71.6099 38.6991 71.5782 38.8621C71.5555 38.972 71.5446 39.0843 71.5458 39.1965C71.5321 39.2345 71.5053 39.266 71.47 39.2854C71.4348 39.3049 71.3938 39.3109 71.3545 39.3021C70.4927 39.2313 70.8438 37.2432 71.0028 36.6626L71.227 35.8576C71.2929 35.5286 71.3889 35.2065 71.5141 34.8953C71.6098 34.5772 71.7376 34.264 71.831 33.9626C71.9243 33.6611 72.0548 33.3852 72.1474 33.1179C72.2386 32.8868 72.3442 32.6617 72.4639 32.4442C72.4859 32.3983 72.497 32.3479 72.4964 32.297C72.4793 32.2807 72.4593 32.2678 72.4373 32.2593C72.4152 32.2509 72.3916 32.247 72.3681 32.2477C72.3258 32.2425 72.2835 32.2405 72.241 32.2415C72.1768 32.2415 72.1451 32.2286 72.1451 32.1999C72.1127 32.1737 72.1127 32.1254 72.1768 32.0586C72.2235 31.9776 72.2891 31.9093 72.3681 31.8597C72.4666 31.7876 72.5727 31.7265 72.6846 31.6776C72.8059 31.6265 72.9363 31.5994 73.0679 31.598C73.1793 31.6101 73.2869 31.645 73.3844 31.7005C73.4168 31.7172 73.799 32.1243 73.8315 32.1689C73.8639 32.2134 73.8957 32.2484 73.9273 32.285V32.3879L73.9374 32.3887ZM37.6188 36.9399C38.3383 36.4255 39.1696 36.0913 40.0436 35.9644C40.1057 35.6729 40.072 35.3688 39.9478 35.098C39.8782 35.0509 39.8031 35.0122 39.7244 34.9827C39.6412 34.9588 39.5555 34.9458 39.469 34.9439C39.3102 34.9521 39.1563 35.0021 39.0227 35.0887C38.8435 35.1883 38.6725 35.3019 38.5114 35.4289C38.331 35.557 38.1604 35.6986 38.001 35.8522C37.8493 35.987 37.6894 36.1119 37.5222 36.2265V36.237L37.4905 36.244V35.0344C37.4905 34.822 37.5221 34.6505 37.458 34.6235L36.4046 34.7513C36.1498 34.822 36.1175 35.1307 36.1175 35.4441V35.7256C36.1175 35.829 36.15 35.9317 36.15 36.0343C36.1859 36.1267 36.2071 36.2239 36.2137 36.3228C36.231 36.3987 36.2525 36.4738 36.2779 36.5473C36.2868 36.6089 36.3084 36.6677 36.3413 36.7205C36.3769 36.7801 36.3988 36.847 36.4054 36.9162C36.4379 36.9678 36.4597 37.0253 36.4695 37.0855C36.4892 37.1126 36.5003 37.1452 36.5012 37.1787C36.472 37.2434 36.4283 37.3005 36.3737 37.3457C36.278 37.4419 36.1506 37.5701 36.0232 37.7212C35.8958 37.8723 35.736 38.0449 35.5761 38.235C35.4163 38.4251 35.2595 38.6159 35.1012 38.8148C34.9738 39.0136 34.8457 39.2123 34.7507 39.3984C34.5924 39.7571 34.5589 39.8702 34.8786 40.1231L35.5491 40.4244C35.7406 40.3759 35.8049 40.0369 35.8049 39.8675C36.0248 39.1126 36.37 38.4004 36.8258 37.7608C36.8899 37.8539 36.9538 37.9462 37.0171 38.04C37.1453 38.1721 37.241 38.2872 37.3684 38.3961C37.4883 38.4965 37.6167 38.5867 37.7517 38.6653C37.8591 38.7283 37.9785 38.7679 38.1022 38.7814C38.1346 38.7885 38.1664 38.7979 38.1988 38.8066C38.2299 38.8157 38.2622 38.8203 38.2946 38.8202H38.4218C38.4753 38.8169 38.5285 38.8079 38.5802 38.7938C38.8968 38.7079 39.0906 38.2141 38.9632 38.0599C38.9632 38.028 38.899 38.021 38.8673 38.021C38.8673 38.021 38.8348 38.021 38.8032 38.021C38.7715 38.021 38.7394 38.0313 38.7077 38.04L38.676 38.0494C38.5478 38.0852 38.0057 38.1456 37.6226 37.1197V37.1007V37.0945C37.6226 37.0404 37.591 36.9853 37.6226 36.9352L37.6188 36.9399ZM111.341 39.6497C110.775 39.833 110.23 40.075 109.713 40.3712C109.522 40.477 109.362 40.5953 109.17 40.7265C109.019 40.8524 108.889 41.0033 108.788 41.1727C108.564 41.5704 108.532 42.1191 109.104 42.1191C109.293 42.1205 109.479 42.0751 109.646 41.9871C109.825 41.8964 109.986 41.7737 110.121 41.6251C110.26 41.4578 110.387 41.2819 110.504 41.0985C110.759 40.6214 111.046 40.1237 111.334 39.6497H111.341ZM114.469 38.1934C114.432 38.2297 114.389 38.259 114.342 38.28C114.278 38.3286 114.184 38.3788 114.086 38.4393C113.636 38.721 113.166 38.9715 112.682 39.1891C111.98 40.4712 110.32 43.8965 108.408 42.8029C108.295 42.7482 108.196 42.6664 108.121 42.5645C108.04 42.4803 107.985 42.374 107.963 42.2589C107.926 42.1438 107.904 42.0244 107.9 41.9036C107.896 41.6212 107.962 41.3424 108.091 41.0916C108.207 40.8384 108.368 40.6089 108.566 40.4147C108.765 40.2035 108.99 40.0193 109.236 39.8668C109.492 39.7045 109.758 39.5607 110.034 39.4365C110.53 39.2087 111.042 39.019 111.566 38.8687C111.599 38.8441 111.63 38.8187 111.63 38.7988C111.662 38.7416 111.693 38.6771 111.726 38.6031C111.758 38.5292 111.789 38.4679 111.821 38.4074C111.853 38.3239 111.917 38.2371 111.949 38.1472C111.982 38.0574 112.013 37.9654 112.045 37.8715L112.236 37.3457V37.3077C112.236 37.2941 112.205 37.2882 112.172 37.2882C112.094 37.309 112.019 37.3415 111.949 37.3845C111.821 37.4513 111.662 37.5316 111.503 37.6342C111.311 37.7329 111.12 37.8429 110.897 37.9527C110.673 38.0624 110.45 38.1736 110.258 38.2762C110.073 38.3729 109.881 38.4557 109.683 38.5235C109.572 38.5747 109.454 38.6082 109.332 38.6229C109.28 38.6267 109.227 38.6194 109.177 38.6016C109.128 38.5838 109.083 38.556 109.045 38.5196C108.959 38.4613 108.892 38.3779 108.853 38.2808C108.821 38.1909 108.789 38.0986 108.757 38.0008V37.7737C108.757 37.61 108.802 37.4495 108.886 37.3092C108.97 37.1294 109.076 36.9608 109.202 36.8079C109.34 36.6336 109.49 36.4689 109.649 36.3143C109.811 36.161 109.981 36.0175 110.16 35.8848C110.309 35.766 110.468 35.6597 110.635 35.5668C110.741 35.489 110.859 35.4311 110.986 35.3963C111.018 35.3867 111.082 35.3783 111.113 35.3679C111.178 35.352 111.241 35.3391 111.305 35.3264C111.347 35.3133 111.389 35.3034 111.433 35.2969L111.528 35.2876C111.617 35.2854 111.706 35.3019 111.789 35.3361C111.871 35.3703 111.945 35.4216 112.007 35.4864C112.138 35.6067 112.218 35.7734 112.23 35.9516C112.216 36.0199 112.194 36.0866 112.166 36.1504C112.151 36.1963 112.126 36.2382 112.093 36.2731C112.06 36.3081 112.019 36.3351 111.974 36.3524C111.871 36.395 111.766 36.4302 111.658 36.458C111.516 36.4861 111.377 36.5292 111.243 36.5861C111.144 36.6367 111.048 36.6935 110.956 36.7562C110.86 36.831 110.764 36.9156 110.639 37.0094C110.543 37.1027 110.448 37.2024 110.352 37.3084C110.288 37.4025 110.235 37.5035 110.194 37.6098V37.628H110.225L112.779 36.7015C112.844 36.6976 112.909 36.704 112.971 36.7205C113.049 36.7419 113.124 36.7731 113.195 36.8129C113.264 36.8592 113.328 36.9123 113.386 36.9717C113.402 37.0025 113.41 37.0366 113.41 37.0712C113.41 37.1058 113.402 37.1398 113.386 37.1706L113.099 38.2641C113.441 38.0998 113.772 37.9128 114.089 37.7038C114.252 37.5726 114.401 37.4251 114.535 37.2638C114.682 37.134 114.81 36.9849 114.918 36.8207C114.957 36.6716 115.01 36.5266 115.076 36.3873C115.204 36.1026 115.299 35.8393 115.393 35.592C115.486 35.3447 115.584 35.1372 115.648 34.9559C115.744 34.7794 115.776 34.6608 115.807 34.6091C115.934 34.3363 116.061 34.0524 116.221 33.7653C116.349 33.4763 116.507 33.1493 116.696 32.784C116.76 32.6392 116.854 32.4698 116.952 32.2702C117.049 32.0706 117.143 31.8915 117.207 31.7308C117.257 31.6641 117.3 31.5921 117.335 31.5161C117.399 31.423 117.462 31.3341 117.526 31.2466C117.596 31.1651 117.67 31.0881 117.75 31.0159C117.822 30.9563 117.911 30.9224 118.005 30.9196H118.068C118.124 30.9264 118.178 30.9447 118.227 30.9736C118.275 31.0175 118.328 31.0561 118.385 31.0889C118.448 31.1342 118.481 31.1725 118.543 31.2178C118.576 31.26 118.607 31.2887 118.607 31.2974C118.607 31.3301 118.64 31.3682 118.64 31.4136C118.664 31.4478 118.676 31.4894 118.672 31.5312C118.655 31.6861 118.611 31.8369 118.544 31.9774C118.448 32.1516 118.352 32.3179 118.257 32.4881C118.128 32.6583 118.002 32.8211 117.874 32.9785C117.77 33.105 117.674 33.2378 117.586 33.3762C117.428 33.5846 117.27 33.8161 117.075 34.069C116.917 34.3224 116.759 34.5725 116.6 34.8196C116.438 35.0571 116.289 35.3034 116.153 35.5571C115.995 35.8585 115.866 36.1668 115.739 36.477V36.5065C115.85 36.4141 115.967 36.3295 116.09 36.2529C116.217 36.1734 116.345 36.0938 116.473 36.0254C116.606 35.9574 116.744 35.9015 116.887 35.8584C117.011 35.8168 117.14 35.7953 117.271 35.7947H117.335C117.476 35.7992 117.61 35.8513 117.718 35.9427C117.813 36.0547 117.898 36.1748 117.972 36.3015C118.036 36.4462 118.1 36.603 118.164 36.7787C118.197 36.9513 118.228 37.1118 118.26 37.2653C118.293 37.3914 118.314 37.5202 118.324 37.6502V37.8354C118.357 37.8481 118.357 37.8546 118.357 37.8482C118.357 37.8418 118.356 37.8482 118.389 37.8482C118.492 37.8458 118.593 37.8111 118.676 37.7488C118.788 37.6811 118.894 37.6037 118.993 37.5174C119.088 37.4243 119.184 37.332 119.28 37.2358C119.376 37.1396 119.438 37.0553 119.503 36.9884C119.503 36.963 119.567 36.9496 119.631 36.9496C119.699 36.9465 119.766 36.9653 119.822 37.0036C119.886 37.0394 119.886 37.0999 119.886 37.1842C119.885 37.2512 119.862 37.3161 119.822 37.3694C119.797 37.4504 119.765 37.5292 119.726 37.6043C119.693 37.6864 119.638 37.758 119.568 37.8125C119.504 37.892 119.44 37.963 119.376 38.0369C119.281 38.1165 119.185 38.1846 119.121 38.249C119.025 38.3126 118.962 38.3646 118.898 38.4027C118.802 38.4568 118.705 38.5117 118.581 38.5697C118.271 38.7429 117.938 38.8712 117.592 38.9507C117.528 38.9642 117.464 38.9729 117.401 38.9856C117.337 38.9984 117.305 38.9992 117.305 38.9992C117.26 38.9982 117.215 38.9844 117.177 38.96C117.138 38.9251 117.095 38.8944 117.05 38.868C117.017 38.8322 116.986 38.794 116.954 38.7519C116.93 38.7197 116.918 38.6797 116.921 38.6396V37.4754C116.948 37.3479 116.959 37.2173 116.954 37.0871C116.921 36.9559 116.922 36.8305 116.89 36.712C116.826 36.4201 116.507 36.494 116.475 36.4964C116.417 36.5379 116.365 36.5851 116.317 36.6378C116.185 36.7606 116.067 36.8984 115.966 37.0482C115.849 37.1898 115.743 37.3399 115.649 37.4975C115.553 37.6447 115.458 37.7632 115.393 37.8467C115.286 37.9819 115.199 38.1332 115.138 38.2952C115.042 38.4717 114.946 38.6388 114.883 38.7922C114.851 38.8082 114.851 38.818 114.851 38.8307C114.822 38.8481 114.788 38.8558 114.755 38.8528C114.719 38.8441 114.686 38.8266 114.659 38.802C114.596 38.7747 114.542 38.7315 114.501 38.6769C114.501 38.6451 114.468 38.5975 114.468 38.5394C114.468 38.4814 114.437 38.4362 114.437 38.4012C114.437 38.3439 114.468 38.2732 114.468 38.1857L114.469 38.1934ZM35.2894 32.2535C35.2881 32.3554 35.2548 32.4543 35.194 32.5358C35.0982 32.6249 35.0022 32.7092 34.9065 32.7832C34.8074 32.8554 34.7014 32.9175 34.59 32.9684C34.5088 33.0075 34.4227 33.0355 34.3342 33.0519C34.3007 33.0527 34.2682 33.0612 34.2387 33.0772C34.1746 33.0931 34.1428 33.109 34.0803 33.1249C34.0178 33.1408 33.9519 33.1576 33.8886 33.1711C33.8253 33.1847 33.7614 33.1927 33.7306 33.1999C33.6451 33.2019 33.5597 33.2102 33.4755 33.2251C33.4114 33.2347 33.3476 33.2413 33.2842 33.2469C33.2319 33.256 33.1789 33.2616 33.1258 33.2636C33.0625 33.2636 32.9677 33.2696 32.8387 33.2768C32.7097 33.2839 32.5839 33.2895 32.3924 33.2927C32.2009 33.2959 32.2001 33.2927 31.9136 33.2927L30.7327 35.032H32.4878C32.4878 35.032 32.5203 35.0322 32.5837 35.0258C32.6153 35.0258 32.6796 35.0257 32.7421 35.0153C32.7745 35.0153 32.8376 35.0092 32.9001 35.006C32.9215 35.0049 32.9429 35.0049 32.9643 35.006C32.9959 35.006 33.0285 34.9995 33.0601 34.9963C33.1234 34.9899 33.156 34.9836 33.2185 34.9804L33.3465 34.9668C33.3789 34.9604 33.4423 34.9536 33.4423 34.9536C33.4965 34.958 33.5499 34.97 33.6007 34.9893C33.6293 34.9969 33.6543 35.014 33.6718 35.0379C33.6894 35.0617 33.6985 35.0909 33.6973 35.1206C33.7019 35.1843 33.6907 35.2482 33.6649 35.3066C33.6324 35.3702 33.569 35.4315 33.5366 35.4864C33.4733 35.5436 33.409 35.5951 33.3449 35.6452C33.3037 35.6969 33.2491 35.7361 33.1869 35.7582C33.0433 35.8329 32.8938 35.895 32.7398 35.9442C32.5482 36.0015 32.3575 36.0532 32.1652 36.0937C31.9728 36.1343 31.7821 36.1685 31.5905 36.1939C31.3674 36.2154 31.2075 36.2258 31.0801 36.2258C30.6329 36.2258 30.4413 36.315 29.9625 36.2832C29.869 36.4605 29.7944 36.6468 29.7396 36.8397C29.6715 37.0293 29.6495 37.2325 29.6754 37.4323C29.7182 37.4709 29.7683 37.5004 29.8226 37.5193C29.877 37.5381 29.9345 37.546 29.9919 37.5422C30.4854 37.5535 30.9784 37.5037 31.4599 37.3943C31.9342 37.2957 32.4029 37.1713 32.8638 37.0218C32.9279 36.9996 33.0223 36.9639 33.1513 36.9193C33.2608 36.8829 33.3667 36.8368 33.4678 36.7811C33.645 36.7069 33.8157 36.618 33.9783 36.5155C34.1348 36.4271 34.3101 36.3773 34.4895 36.3706C34.5232 36.366 34.5575 36.3681 34.5904 36.3768C34.6232 36.3856 34.6538 36.4008 34.6808 36.4215C34.722 36.4697 34.7446 36.5315 34.7442 36.5951C34.7279 36.8288 34.6389 37.0513 34.4895 37.2312C34.3224 37.4574 34.1293 37.6629 33.9141 37.8436C33.7056 38.0268 33.4811 38.1911 33.2437 38.3344C33.0766 38.4427 32.8933 38.5231 32.7007 38.5728C32.6465 38.586 32.5937 38.604 32.5427 38.6268C32.502 38.6487 32.4592 38.6671 32.4152 38.6812C32.3194 38.7066 32.1913 38.7326 32.0987 38.7604C31.9713 38.7859 31.844 38.8115 31.7482 38.8346C31.6524 38.8576 31.524 38.8758 31.4607 38.8886C31.4178 38.8918 31.3751 38.8981 31.3332 38.9076C31.3007 38.9076 31.2694 38.9077 31.206 38.9173C31.1427 38.9268 31.0785 38.9277 31.0144 38.9309C30.9503 38.9341 30.8868 38.9412 30.8227 38.9468C30.791 38.9521 30.7594 38.9553 30.7273 38.9569H30.2809C29.8969 38.9829 29.515 38.8805 29.1951 38.6653C29.0558 38.5361 28.9486 38.3756 28.8821 38.1973C28.8156 38.019 28.7913 37.8278 28.8118 37.6385C28.8126 37.6041 28.824 37.5707 28.8442 37.543V37.357C28.8442 37.287 28.8767 37.2119 28.8767 37.1395C28.9008 37.0784 28.9116 37.013 28.9084 36.9473C28.9455 36.87 28.9775 36.79 29.0042 36.7085C29.0358 36.6122 29.0684 36.5232 29.1 36.4397C29.1334 36.3687 29.1551 36.2929 29.1642 36.2149C29.184 36.1797 29.1949 36.14 29.1959 36.0996V36.0285C29.1642 36.015 29.1642 35.9969 29.1317 35.9714C29.0914 35.8723 29.0697 35.7666 29.0676 35.6596C29.0351 35.5347 29.0034 35.4576 29.0034 35.4258C29.0064 35.3002 29.0514 35.1791 29.1309 35.0821C29.216 34.9999 29.3293 34.954 29.4474 34.9536C29.4791 34.9536 29.5116 34.9534 29.5433 34.9606C29.5863 34.9658 29.6292 34.9731 29.6715 34.9827L30.7246 33.0422C30.6279 32.9502 30.5519 32.8388 30.5008 32.7152C30.4692 32.6116 30.448 32.5051 30.4374 32.3972C30.432 32.3409 30.4442 32.2845 30.4726 32.2357C30.501 32.1868 30.5444 32.1482 30.5959 32.1254C30.7195 32.0788 30.8479 32.0464 30.9788 32.0291L34.8725 32.01C34.9152 32.0111 34.9579 32.0154 35 32.0228C35.0442 32.0334 35.0872 32.0483 35.1283 32.0679C35.1739 32.0894 35.2166 32.1161 35.2562 32.1475C35.2689 32.1625 35.2785 32.1802 35.284 32.1992C35.2895 32.2181 35.2906 32.2379 35.2879 32.2574L35.2894 32.2535ZM44.4809 37.1414C44.4805 37.2046 44.4695 37.2672 44.4485 37.3267C44.4208 37.4128 44.3888 37.4974 44.3526 37.5803C44.272 37.8092 44.1282 38.0103 43.938 38.16C43.7438 38.3253 43.5291 38.4646 43.2992 38.5744C43.0748 38.6827 42.8397 38.7663 42.5975 38.8241C42.3986 38.8711 42.1954 38.8978 41.9912 38.9037H41.7995C41.7454 38.8995 41.6923 38.8878 41.6415 38.8687C41.5774 38.8465 41.483 38.8202 41.4181 38.7891C41.3532 38.7581 41.2597 38.7289 41.194 38.6994C41.1495 38.6791 41.107 38.6552 41.0661 38.6284C40.9955 38.5741 40.9311 38.512 40.8744 38.4431C40.8103 38.3636 40.7785 38.2793 40.716 38.1934C40.6843 38.1068 40.653 38.016 40.6213 37.9302C40.5873 37.8546 40.5656 37.7742 40.5572 37.6917C40.5648 37.4401 40.6182 37.1922 40.7152 36.9601C40.8378 36.7138 40.977 36.476 41.131 36.2483C41.3225 36.0208 41.5137 35.8082 41.7052 35.6118C41.9167 35.4227 42.1408 35.2483 42.3757 35.0895C42.5853 34.9481 42.8103 34.831 43.0461 34.7404C43.2164 34.6606 43.4012 34.617 43.5891 34.6122C43.6752 34.6147 43.7606 34.6274 43.8437 34.6503C43.9229 34.6799 43.9981 34.7197 44.0671 34.7687C44.1354 34.8195 44.1896 34.8869 44.2251 34.9645C44.2643 35.0502 44.2859 35.1432 44.2885 35.2375C44.2862 35.3412 44.2527 35.4416 44.1926 35.526C44.1431 35.6203 44.0786 35.7057 44.0014 35.7788C43.9234 35.8485 43.8375 35.9089 43.7456 35.9586C43.6674 36.0018 43.5801 36.025 43.4909 36.0262C43.4364 36.0218 43.3828 36.0088 43.3325 35.9873C43.2824 35.9556 43.2297 35.9289 43.1744 35.9077C43.1278 35.8864 43.0845 35.8582 43.0461 35.8242C42.982 35.7996 42.982 35.7862 42.982 35.7862C42.7856 35.8026 42.5976 35.8735 42.439 35.9912C42.224 36.1405 42.0209 36.3067 41.832 36.4883C41.6529 36.6706 41.4936 36.8715 41.3571 37.0879C41.2286 37.2299 41.1504 37.4104 41.1341 37.6016C41.1567 37.6303 41.1861 37.6531 41.2195 37.6676C41.2529 37.6822 41.2891 37.6881 41.3254 37.6851C41.3895 37.6851 41.4838 37.6851 41.5487 37.6851H41.8358C41.9216 37.6798 42.0072 37.6691 42.0917 37.6533C42.2191 37.6302 42.3464 37.6049 42.4746 37.5795C42.6579 37.5431 42.8391 37.497 43.0175 37.4412C43.2407 37.384 43.4323 37.3249 43.6238 37.2677C43.6555 37.2549 43.7194 37.2326 43.7819 37.2032C43.8444 37.1738 43.9403 37.146 44.0052 37.1174C44.0701 37.0887 44.1336 37.0592 44.1637 37.0378C44.2041 37.0194 44.2468 37.0074 44.2908 37.002H44.4492C44.4817 37.0211 44.4817 37.0699 44.4817 37.1407L44.4809 37.1414Z" fill="#F26309"/>
<path fill-rule="evenodd" clip-rule="evenodd" d="M115.084 25.3954H100.181C99.7397 25.3903 99.3171 25.2161 98.9999 24.908L95.745 21.6472C95.5723 21.4868 95.4347 21.2917 95.3412 21.0748C95.2477 20.8579 95.2004 20.6239 95.2021 20.3875V0.414801H101.425V19.4943C101.423 19.6661 101.49 19.8315 101.609 19.9541C101.729 20.0767 101.893 20.1462 102.063 20.1479H115.084V25.3954ZM71.362 0.414801C70.9108 0.413616 70.4763 0.58705 70.1486 0.898662L66.8937 4.17696C66.5589 4.50499 66.3642 4.95105 66.3508 5.42078V20.3883C66.3786 20.8867 66.5959 21.3554 66.9579 21.6973L70.1486 24.9073C70.475 25.2213 70.91 25.3959 71.362 25.3946H86.2339C86.4534 25.3982 86.6712 25.3569 86.8742 25.2731C87.0773 25.1893 87.2613 25.0649 87.4148 24.9073L90.638 21.6752C90.8221 21.5165 90.9692 21.3189 91.0685 21.0966C91.1678 20.8743 91.2169 20.6327 91.2126 20.389V10.5472H76.947V15.7904H85.019V19.4951C85.0188 19.5826 85.0012 19.6693 84.9672 19.7498C84.9332 19.8304 84.8836 19.9033 84.8212 19.9642C84.7587 20.0251 84.6847 20.0726 84.6036 20.1044C84.5225 20.1361 84.436 20.1515 84.349 20.149H73.2439C73.1568 20.1515 73.0703 20.1361 72.9892 20.1044C72.9081 20.0726 72.8341 20.0251 72.7716 19.9642C72.7092 19.9033 72.6596 19.8304 72.6256 19.7498C72.5916 19.6693 72.574 19.5826 72.5738 19.4951V6.31278C72.5742 6.22536 72.5919 6.13925 72.626 6.05881C72.66 5.97837 72.7096 5.90534 72.772 5.84445C72.8345 5.78357 72.9086 5.73569 72.9896 5.70388C73.0706 5.67206 73.1569 5.657 73.2439 5.65922H84.3505C84.4374 5.6571 84.5238 5.67241 84.6048 5.70427C84.6857 5.73612 84.7595 5.78398 84.8219 5.84484C84.8843 5.90571 84.9343 5.97842 84.9684 6.05881C85.0025 6.1392 85.0201 6.22539 85.0206 6.31278V8.43307H91.2119V5.42234C91.2139 5.18473 91.1666 4.94937 91.0731 4.73111C90.9797 4.51285 90.842 4.31629 90.6689 4.15443L87.4141 0.899439C87.2599 0.74299 87.0756 0.619447 86.8727 0.536349C86.6698 0.45325 86.4523 0.412386 86.2332 0.415966L71.362 0.414801ZM39.0325 0.414801H45.2844L56.1669 15.0906V0.414801H62.3907V25.3954H56.1387L45.2562 10.7157V25.3954H39.0325V0.414801ZM28.8235 0.414801H35.0469V25.3954H28.8235V0.414801ZM6.22841 20.149H18.0043C18.1753 20.1474 18.3386 20.0775 18.4584 19.9549C18.5781 19.8323 18.6446 19.6669 18.6431 19.4951V6.31278C18.6439 6.1412 18.5772 5.97622 18.4576 5.85377C18.338 5.73133 18.1751 5.66153 18.0043 5.65922H6.22841V20.149ZM0.00463711 0.415966H19.8553C20.3062 0.414903 20.7405 0.587946 21.0679 0.899439L24.2911 4.15443C24.4686 4.31443 24.6111 4.50959 24.71 4.72761C24.8088 4.94563 24.862 5.182 24.8657 5.42156V20.389C24.8653 20.6365 24.8109 20.8811 24.7061 21.1051C24.6014 21.3291 24.4488 21.527 24.2594 21.6853L21.0679 24.9088C20.7417 25.2227 20.307 25.3972 19.8553 25.3962H0V0.415966H0.00463711ZM118.823 0.415966H125.046V25.3962H118.823V0.415966Z" fill="#1A1A1A"/>
</svg>
