<svg width="1920" height="290" viewBox="0 0 1920 290" fill="none" xmlns="http://www.w3.org/2000/svg">
<g clip-path="url(#clip0_867_642)">
<path fill-rule="evenodd" clip-rule="evenodd" d="M814.739 36.8998C807.158 48.2567 791.494 63.2175 782.651 73.313C760.523 56.4376 741.003 41.0082 695.575 46.8151C617.298 54.3743 554.383 138.035 598.544 215.033C649.612 252.554 700.27 237.557 745.855 210.528L757.369 255.613C608.707 334.899 478.286 265.636 537.03 114.24C557.833 68.4702 671.587 -61.3882 814.721 36.8998" fill="#EC6607"/>
<path fill-rule="evenodd" clip-rule="evenodd" d="M502.13 7.73047C480.421 43.9769 403.392 157.622 334.827 155.311C222.515 155.311 113.6 155.599 0.00463867 154.347L169.75 7.93765C273.25 7.93765 399.901 9.00088 502.13 7.73501" fill="#EC6607"/>
<path fill-rule="evenodd" clip-rule="evenodd" d="M1906.49 18.6547L1888.56 55.649C1800.41 23.1326 1730.86 63.9877 1712.33 99.617C1675.87 158.847 1702.71 211.51 1716.79 222.249C1761.19 246.409 1794.12 240.742 1844.56 219.339L1860.58 144.873H1794.47L1794.94 106.131H1920L1890.39 239.625C1763.52 354.973 1544.05 258.072 1675.05 73.0244C1708.41 21.0018 1817.79 -27.2413 1906.49 18.6547" fill="#EC6607"/>
<path fill-rule="evenodd" clip-rule="evenodd" d="M1396.39 0.666796L1201.06 289.256L1140.45 289.386L1102.58 0.355957L1153.13 1.67139L1187.37 224.795L1341.09 0.446055L1396.39 0.666796Z" fill="#EC6607"/>
<path fill-rule="evenodd" clip-rule="evenodd" d="M375.38 179.584C369.074 206.086 337.886 222.124 313.893 225.025L40.8956 224.353L12.6003 179.584H375.38Z" fill="#EC6607" fill-opacity="0.5"/>
<path fill-rule="evenodd" clip-rule="evenodd" d="M321.691 244.251C315.632 269.402 268.898 281.304 255.766 288.697L76.3629 288.733L52.9915 245.216L321.691 244.251Z" fill="#EC6607" fill-opacity="0.5"/>
<path fill-rule="evenodd" clip-rule="evenodd" d="M1028.3 0L1066.17 289.179L1018.38 289.035L1000.16 148.576L922.285 150.198L832.484 289.747L779.84 288.458L872.317 146.955L843.125 148.031L859.721 107.645L895.976 107.257L968.609 0H1028.3ZM987.939 55.041L951.702 107.095H994.206L987.939 55.041Z" fill="#EC6607"/>
<path fill-rule="evenodd" clip-rule="evenodd" d="M1558.37 0L1596.24 289.179L1548.45 289.039L1530.24 148.576L1452.35 150.198L1362.57 289.747L1309.93 288.463L1402.4 146.955L1373.2 148.031L1389.79 107.645L1426.04 107.257L1498.68 0H1558.37ZM1516.54 53.0092L1481.75 107.095H1524.28L1516.54 53.0092Z" fill="#EC6607"/>
</g>
<defs>
<clipPath id="clip0_867_642">
<rect width="1920" height="290" fill="white"/>
</clipPath>
</defs>
</svg>
