<svg width="126" height="43" viewBox="0 0 126 43" fill="none" xmlns="http://www.w3.org/2000/svg">
<path fill-rule="evenodd" clip-rule="evenodd" d="M63.9888 31.5783C63.9208 31.6873 63.8461 31.7922 63.7655 31.8925C63.6072 32.1172 63.449 32.3073 63.3192 32.4653C63.1894 32.6232 63.0961 32.766 63.0027 32.8996C62.9386 33.03 62.8446 33.1598 62.7789 33.2863C62.7133 33.4128 62.6204 33.5463 62.5239 33.6956C62.4598 33.8316 62.3658 33.9862 62.2685 34.1606C62.2044 34.339 62.11 34.5034 62.0443 34.659C61.7805 35.1559 61.5459 35.6675 61.3422 36.1917C61.0866 36.8163 60.736 37.4437 60.8951 37.666C60.9592 37.7611 61.0234 37.8089 61.37 37.7193C61.4341 37.7028 61.4984 37.6807 61.5625 37.6587C61.6174 37.6435 61.6702 37.6224 61.7205 37.5958C61.9801 37.4799 62.2177 37.3204 62.4227 37.1243C62.6458 36.9179 62.8694 36.7059 63.0931 36.4874C63.0931 36.4623 63.1244 36.4456 63.1885 36.4456C63.227 36.4414 63.2661 36.4486 63.3002 36.4667C63.3344 36.4848 63.3623 36.5128 63.3802 36.5469C63.4291 36.589 63.4628 36.6459 63.4761 36.7088C63.4761 36.7402 63.4118 36.8102 63.3176 36.9217C63.2543 37.0294 63.1263 37.1463 63.0305 37.2697C62.9031 37.3962 62.775 37.5165 62.6792 37.6273L62.5834 37.7193L62.4559 37.8624C62.2964 38.016 62.1258 38.1575 61.9454 38.2864C61.8052 38.4264 61.628 38.5245 61.4342 38.5687C61.2173 38.6365 60.9911 38.6706 60.7637 38.67C60.6642 38.6691 60.5662 38.6463 60.4766 38.6033C60.3928 38.5624 60.3171 38.5067 60.2533 38.4391C60.2216 38.3754 60.1578 38.3084 60.1578 38.2354C60.124 38.1771 60.1021 38.1129 60.0937 38.0462C60.0957 37.9724 60.1064 37.8989 60.1254 37.8275C60.1578 37.694 60.1578 37.5545 60.1895 37.4036C60.2253 37.2644 60.2464 37.122 60.2533 36.9785C60.2726 36.9083 60.2835 36.8357 60.2857 36.7629V36.6846C60.1071 36.8427 59.9367 37.0096 59.7753 37.1849C59.5972 37.3666 59.4054 37.5344 59.201 37.6863C59.0812 37.781 58.9527 37.8645 58.8177 37.9361C58.6996 38.0225 58.5713 38.094 58.4355 38.149C58.3714 38.1671 58.3076 38.1899 58.2435 38.2119C58.1811 38.2285 58.117 38.239 58.0526 38.2434C57.944 38.2395 57.837 38.2172 57.7361 38.1774C57.634 38.129 57.5374 38.0693 57.4486 37.9998C57.3693 37.9207 57.295 37.8371 57.2256 37.7493C57.1606 37.6617 57.1072 37.5659 57.0672 37.4646C57.0348 37.3669 57.0132 37.2662 57.003 37.1638V36.9171C56.9985 36.758 57.0094 36.5988 57.0355 36.4418C57.0809 36.251 57.1809 36.0771 57.323 35.9411C57.4282 35.8129 57.5455 35.6952 57.6735 35.5893C57.7876 35.4757 57.9163 35.3776 58.0564 35.2977C58.0889 35.2695 58.184 35.219 58.3122 35.1263C58.4705 35.0414 58.6288 34.9518 58.8227 34.8638C58.9886 34.7741 59.1593 34.6936 59.334 34.6221C59.4651 34.5635 59.6053 34.5269 59.7486 34.5143C59.8284 34.5112 59.9068 34.5347 59.9716 34.5811C60.0408 34.6319 60.1051 34.6895 60.1632 34.7526C60.1949 34.8194 60.2274 34.8885 60.2591 34.9655C60.2923 35.0263 60.3141 35.0926 60.3232 35.1612C60.3231 35.2088 60.3111 35.2556 60.2888 35.2977C60.2665 35.3399 60.2343 35.3758 60.1949 35.4029C60.1057 35.4403 60.0199 35.4861 59.9391 35.5391C59.7388 35.6401 59.547 35.7564 59.3649 35.887C59.1323 36.053 58.9085 36.2306 58.6944 36.4195C58.4811 36.6109 58.2787 36.8143 58.0881 37.028C57.9222 37.1947 57.792 37.3928 57.7052 37.6108C57.7052 37.6485 57.7694 37.6676 57.8327 37.6676C57.9666 37.6568 58.0968 37.619 58.2156 37.5567C58.3712 37.4793 58.5204 37.3901 58.662 37.2897C58.8202 37.1852 58.9492 37.0867 59.0766 36.9885C59.204 36.8903 59.2996 36.8087 59.3637 36.7529C59.4916 36.6572 59.6096 36.5486 59.7154 36.4291C59.8672 36.2991 60.006 36.155 60.13 35.9987C60.2688 35.8508 60.3967 35.6932 60.5129 35.5272C60.6181 35.3869 60.7043 35.2334 60.7688 35.0706C60.9919 34.5206 61.2156 33.9707 61.4388 33.4324C61.6579 32.9135 61.9032 32.4058 62.1734 31.9113C62.2051 31.8131 62.2689 31.6959 62.3315 31.5529C62.394 31.4099 62.4274 31.1663 62.5865 31.1474C62.9355 31.1215 64.3719 30.8083 63.9888 31.5783ZM66.7974 36.8323C66.6547 36.8324 66.5176 36.7775 66.4144 36.6797C66.309 36.5685 66.2523 36.4206 66.2564 36.268C66.2532 36.1146 66.3097 35.9661 66.4144 35.8533C66.5187 35.7578 66.6555 35.705 66.7974 35.7056C66.9522 35.706 67.1012 35.7659 67.2124 35.8728C67.267 35.9221 67.3094 35.9832 67.3368 36.0512C67.3642 36.1193 67.3757 36.1926 67.3704 36.2657C67.3798 36.3419 67.3702 36.4191 67.3426 36.4909C67.315 36.5627 67.2706 36.6267 67.2124 36.6774C67.0971 36.776 66.9496 36.83 66.7974 36.8297V36.8323ZM89.6158 35.3077C89.6229 35.4782 89.6012 35.6488 89.5517 35.8122C89.5153 36.0225 89.4511 36.2269 89.3604 36.4203C89.2907 36.6302 89.2051 36.8347 89.1046 37.0318C88.9771 37.2314 88.8815 37.3993 88.7881 37.5321L88.5968 37.8087C88.5164 37.8887 88.4416 37.9745 88.3734 38.065C88.3054 38.1354 88.2302 38.1987 88.1493 38.2542C88.0731 38.3034 87.9848 38.3307 87.8939 38.3328C87.8393 38.3316 87.7853 38.3197 87.7355 38.2975C87.6803 38.2764 87.6275 38.25 87.5774 38.2189C87.5133 38.1874 87.4807 38.1563 87.419 38.1241C87.3749 38.1005 87.3323 38.0742 87.2915 38.0454C87.1307 37.9268 86.9998 37.7728 86.9085 37.5958C86.8152 37.4382 86.7506 37.2657 86.7172 37.0859C86.6848 36.9084 86.6847 36.7307 86.6531 36.55C86.6531 36.3701 86.6206 36.202 86.6206 36.0401C86.4183 36.2112 86.2364 36.4046 86.0785 36.6167C85.9202 36.8344 85.7271 37.0507 85.5672 37.2597C85.3879 37.4564 85.1959 37.6415 84.9926 37.8137C84.808 37.9663 84.5887 38.0717 84.3538 38.1214C84.3222 38.1277 84.2904 38.138 84.2263 38.1506C84.1939 38.1631 84.1308 38.1748 84.0992 38.1882C84.0558 38.1971 84.0129 38.2089 83.9709 38.2231C83.9399 38.2324 83.9075 38.2366 83.8751 38.2361C83.8464 38.2383 83.8176 38.2349 83.7904 38.2258C83.7632 38.2166 83.7384 38.2019 83.717 38.1828C83.6635 38.153 83.6191 38.1092 83.5887 38.0562C83.5571 38.0028 83.5245 37.9478 83.4929 37.8912V37.7343C83.5082 37.605 83.5405 37.4782 83.5887 37.3572C83.6439 37.1368 83.7184 36.9215 83.8117 36.7142C83.9075 36.4675 84.0043 36.213 84.1286 35.9411C84.2243 35.6716 84.3517 35.425 84.445 35.2003C84.5732 34.9756 84.6689 34.7909 84.7615 34.6455C84.8541 34.5002 84.9196 34.4303 84.9845 34.4303C85.0384 34.4319 85.0919 34.4416 85.1429 34.4587C85.2101 34.4793 85.2746 34.5079 85.3346 34.5443C85.403 34.5867 85.4669 34.6357 85.5259 34.6904C85.5643 34.7515 85.5864 34.8211 85.59 34.893L85.0471 36.9359C85.0788 36.9493 85.1105 36.9518 85.1105 36.9455C85.1105 36.9392 85.1429 36.9326 85.1429 36.9271C85.3372 36.7736 85.5188 36.6053 85.6859 36.423C85.8441 36.2446 85.9731 36.0675 86.1322 35.8962C86.2604 35.7281 86.3877 35.5705 86.5151 35.4251C86.6337 35.2832 86.7735 35.1599 86.9298 35.0603C86.9298 35.0414 86.9623 35.032 87.0256 35.0288C87.0889 35.0257 87.1215 35.0227 87.1531 35.0227C87.2706 35.0212 87.3879 35.0308 87.5036 35.0511C87.5939 35.0566 87.6817 35.0836 87.7594 35.1297C87.7872 35.1385 87.8128 35.1525 87.8348 35.1715C87.8567 35.1906 87.8742 35.214 87.8866 35.2402C87.9164 35.2791 87.9382 35.3234 87.9507 35.3706C87.9228 35.5412 87.9119 35.7143 87.9182 35.887V36.4794C87.9182 36.686 87.9507 36.8942 87.9507 37.104C87.9831 37.3193 87.9832 37.5221 88.0148 37.7216C88.07 37.6726 88.1137 37.6118 88.1424 37.544C88.1748 37.4552 88.2382 37.3635 88.2707 37.259C88.3031 37.1545 88.3661 37.053 88.3978 36.9509C88.3997 36.8608 88.4216 36.7722 88.4619 36.6915C88.5397 36.5113 88.5931 36.3218 88.6204 36.1276C88.688 35.9042 88.7411 35.6765 88.7788 35.4462C88.8054 35.3777 88.8165 35.3042 88.8113 35.231C88.8437 35.1579 88.8434 35.0822 88.875 35.0123V34.8796C88.9067 34.801 88.9067 34.7177 88.9392 34.6329C88.9716 34.548 89.0026 34.4679 89.035 34.4012C89.0675 34.3344 89.0992 34.2999 89.1625 34.2999C89.1992 34.3028 89.2339 34.3168 89.2622 34.3402C89.2906 34.3635 89.3109 34.395 89.3206 34.4303C89.3847 34.5183 89.4165 34.5944 89.479 34.6659C89.5221 34.7547 89.5543 34.8483 89.5748 34.9448C89.6004 35.0622 89.611 35.1823 89.6065 35.3024L89.6158 35.3077ZM106.307 38.0075C106.454 38.1225 106.624 38.2047 106.806 38.248C106.988 38.2913 107.177 38.2948 107.361 38.2584C107.489 38.2395 107.425 38.1246 107.425 38.1214C107.361 38.0648 107.267 38.0336 107.233 37.9645C107.109 37.7753 107.051 37.5508 107.069 37.3257C107.086 37.1006 107.178 36.8874 107.329 36.7192C107.425 36.6076 107.487 36.4873 107.584 36.3616C107.68 36.1895 108.127 35.7211 108.127 35.5498C108.191 35.0682 108.127 35.0424 107.81 34.7422C107.459 34.3879 107.172 34.6573 106.884 35.0871C106.735 35.3228 106.608 35.5709 106.502 35.8287C106.383 36.0924 106.277 36.3622 106.185 36.6367C106.108 36.8776 106.065 37.1279 106.057 37.3806C106.08 37.6091 106.168 37.8261 106.313 38.0052L106.307 38.0075ZM109.02 33.4417C109.025 33.3617 109.014 33.2818 108.988 33.2061C108.973 33.1283 108.94 33.055 108.892 32.9916C108.829 32.9273 108.753 32.8773 108.669 32.8455C108.578 32.8089 108.479 32.7977 108.382 32.8132L108.318 32.8236C108.207 32.8338 108.099 32.8655 108.001 32.9176C107.91 32.9754 107.824 33.0417 107.745 33.1152C107.677 33.1915 107.624 33.279 107.587 33.3741C107.526 33.4594 107.493 33.5611 107.491 33.6657C107.471 33.749 107.479 33.8366 107.513 33.9151C107.548 33.9935 107.607 34.0586 107.683 34.1004C107.756 34.1523 107.839 34.1886 107.927 34.2078C108.015 34.227 108.106 34.2286 108.194 34.212C108.282 34.2007 108.368 34.1756 108.449 34.138C108.544 34.1028 108.63 34.0492 108.704 33.9807C108.794 33.9191 108.87 33.8407 108.929 33.7497C108.993 33.6576 109.026 33.5477 109.024 33.4355L109.02 33.4417ZM124.848 34.006C124.829 34.0228 124.814 34.043 124.803 34.0658C124.792 34.0886 124.785 34.1135 124.784 34.1387C124.747 34.1922 124.705 34.2415 124.657 34.2857C124.512 34.4221 124.353 34.543 124.182 34.6463C124.041 34.7373 123.891 34.8139 123.735 34.875C123.591 34.9351 123.442 34.9796 123.289 35.0077C123.152 35.0377 123.013 35.058 122.874 35.0683C122.746 35.0864 122.618 35.2575 122.618 35.2575L122.586 35.2797V35.3047L122.554 35.33V35.3518L122.521 35.3645C122.085 35.9587 121.78 36.6382 121.628 37.3579C121.627 37.3883 121.632 37.4186 121.643 37.447C121.654 37.4753 121.671 37.5011 121.692 37.5229C121.738 37.5581 121.793 37.5802 121.85 37.5866C121.914 37.5958 121.978 37.5988 122.042 37.5958C122.106 37.5958 122.17 37.5889 122.2 37.5889C122.362 37.5842 122.522 37.5557 122.675 37.5041C122.861 37.4625 123.035 37.38 123.185 37.2628C123.351 37.1538 123.51 37.0344 123.66 36.9052C123.764 36.8071 123.9 36.7495 124.043 36.7433C124.171 36.7433 124.267 36.7716 124.267 36.8281C124.293 36.8857 124.304 36.9493 124.298 37.0123C124.307 37.0733 124.296 37.1351 124.267 37.1895C124.26 37.2349 124.237 37.2767 124.202 37.3069C124.166 37.3512 124.123 37.3898 124.075 37.4216C124.015 37.4706 123.962 37.5268 123.917 37.5889C123.77 37.7377 123.597 37.859 123.406 37.9472C123.189 38.0547 122.965 38.1478 122.736 38.2261C122.506 38.3032 122.272 38.3643 122.033 38.4091C121.834 38.4517 121.631 38.474 121.427 38.4759C121.352 38.4758 121.277 38.4695 121.203 38.4571C121.113 38.4497 121.026 38.4228 120.948 38.3785C120.864 38.348 120.795 38.2868 120.756 38.2073C120.692 38.1193 120.649 38.0185 120.628 37.9119L121.713 35.1619C121.713 35.1486 121.713 35.1336 121.681 35.1147C121.553 35.0982 121.457 35.0854 121.298 35.076C121.173 35.0581 121.054 35.0153 120.947 34.9498C120.883 34.9183 120.851 34.861 120.788 34.7848C120.726 34.7086 120.692 34.6227 120.63 34.5347C120.597 34.4459 120.566 34.3542 120.534 34.2615C120.51 34.188 120.499 34.1109 120.502 34.0336C120.502 33.9386 120.502 33.8763 120.566 33.8591C120.627 33.8349 120.693 33.8251 120.758 33.8307L122.225 33.9738C122.294 33.8396 122.348 33.6979 122.384 33.5518C122.448 33.4033 122.511 33.2643 122.575 33.1378C122.703 32.8872 122.799 32.6146 122.959 32.3168C123.086 32.0221 123.214 31.7408 123.341 31.4674C123.404 31.3735 123.457 31.2739 123.5 31.1697C123.561 31.0448 123.636 30.9268 123.723 30.8183C123.79 30.7081 123.877 30.6107 123.979 30.5301C124.08 30.4543 124.202 30.4119 124.329 30.4097C124.496 30.4129 124.66 30.4586 124.804 30.5424C124.87 30.5843 124.924 30.6416 124.963 30.7089C125.002 30.7762 125.024 30.8516 125.027 30.9291C125.018 31.0394 124.985 31.1464 124.931 31.2433C124.869 31.383 124.795 31.5171 124.708 31.6435C124.613 31.7794 124.55 31.9026 124.484 32.011C124.432 32.0791 124.389 32.1538 124.357 32.2328C124.165 32.5203 124.006 32.8084 123.846 33.0967C123.688 33.3435 123.53 33.588 123.399 33.8261V33.8418H123.367C123.303 33.9644 123.399 34.0029 123.431 34.006L124.58 33.8921C124.623 33.8921 124.666 33.8954 124.708 33.9016C124.757 33.9252 124.8 33.9586 124.835 33.9999L124.848 34.006ZM94.5296 36.0789C94.4723 36.222 94.4296 36.3704 94.4017 36.522C94.2434 37.105 93.6678 38.4577 95.0401 38.578C95.1312 38.2651 95.2062 37.9478 95.2642 37.6273C95.4225 37.0773 95.5808 36.502 95.7391 35.9292C96.6307 35.8184 97.5149 35.6568 98.3877 35.4447C98.1696 36.0952 97.9884 36.7572 97.8447 37.4278C97.5891 38.6315 98.7058 38.974 99.4086 38.1183C99.4403 38.0995 99.472 38.0736 99.472 38.0516C99.3896 38.0019 99.3225 37.931 99.2776 37.8463C99.2327 37.7616 99.2119 37.6664 99.2173 37.5709C99.2059 37.2907 99.2272 37.0102 99.2807 36.7349C99.3764 36.342 99.4721 35.949 99.5972 35.5655C99.7555 35.0996 99.9137 34.6431 100.108 34.1928C100.299 33.7088 100.522 33.2335 100.745 32.7676C100.968 32.3307 101.224 31.9034 101.48 31.5012V31.4824C100.841 30.7281 100.491 30.9848 100.139 31.5387C99.9162 31.8939 99.7245 32.2647 99.533 32.6387C99.3099 33.0857 99.1183 33.5447 98.926 34.0075C98.7985 34.2802 98.7029 34.575 98.5755 34.8853C98.4815 34.8625 98.3841 34.8561 98.288 34.8665C97.5543 34.9082 96.7845 34.9301 96.054 34.9521C96.2456 34.3628 96.4688 33.7893 96.6928 33.2471C96.8511 32.848 97.6818 31.3871 96.8199 31.0327C96.6743 30.9845 96.519 30.9742 96.3682 31.0024C96.2174 31.0306 96.0762 31.0964 95.9582 31.1938C96.2748 31.351 95.5118 33.4433 94.9365 34.977C94.5218 34.9864 94.1069 34.9993 93.7231 35.015C93.6475 35.013 93.5722 35.0236 93.5002 35.0465C93.4361 35.0653 93.4044 35.1287 93.436 35.2371C93.5642 36.1077 94.0747 36.1307 94.5219 36.0796L94.5296 36.0789ZM102.731 34.8113C102.415 34.9095 101.806 35.3723 101.806 35.6285C101.87 35.7369 102.635 35.4289 102.923 35.1374C103.146 34.9284 102.987 34.7382 102.731 34.8113ZM101.04 35.5586C101.072 35.527 101.095 35.4866 101.104 35.4424C101.2 35.2994 101.262 35.1633 101.359 35.0392C101.563 34.7909 101.812 34.5828 102.093 34.4249C102.337 34.29 102.611 34.2187 102.891 34.2182C103.025 34.2086 103.159 34.2323 103.282 34.2872C103.404 34.3421 103.511 34.4262 103.593 34.5324C103.655 34.623 103.688 34.7301 103.689 34.8397C103.784 35.4321 103.113 35.7998 102.699 35.9868C102.392 36.1246 102.071 36.2299 101.742 36.301C101.625 36.3209 101.521 36.3839 101.45 36.4775C101.379 36.571 101.346 36.6882 101.359 36.8047C101.386 36.9149 101.454 37.0104 101.55 37.0717C102.11 37.2922 102.728 37.32 103.306 37.1504C103.976 36.9679 104.583 36.6061 105.06 36.1046C105.077 36.0699 105.105 36.0419 105.14 36.0251C105.174 36.0084 105.214 36.0043 105.252 36.0129C105.316 36.0412 105.347 36.1493 105.347 36.2216C105.347 36.9735 104.455 37.699 103.976 37.9277C103.476 38.154 102.929 38.2546 102.381 38.2212C101.886 38.2026 101.417 37.9965 101.071 37.6453C100.893 37.4513 100.782 37.2056 100.755 36.9444C100.724 36.4644 100.823 35.9853 101.042 35.5563L101.04 35.5586ZM80.1039 34.8113C80.3596 34.7382 80.5188 34.9284 80.2956 35.1374C80.0083 35.4289 79.2421 35.7369 79.1788 35.6285C79.1788 35.3723 79.785 34.9095 80.1039 34.8113ZM78.4423 35.5586C78.2103 35.9838 78.1005 36.4642 78.1254 36.9471C78.1524 37.2084 78.2637 37.4538 78.4423 37.6476C78.7844 38.0039 79.2547 38.2113 79.7504 38.2238C80.2985 38.2574 80.8466 38.1562 81.3459 37.9292C81.8208 37.7013 82.7181 36.9758 82.7181 36.2239C82.7181 36.1516 82.6864 36.0442 82.6223 36.0152C82.5265 35.9837 82.4642 36.0597 82.3993 36.1069C81.939 36.614 81.34 36.9774 80.6755 37.1527C80.098 37.3223 79.4801 37.2945 78.9203 37.074C78.8244 37.0126 78.7557 36.9171 78.7287 36.807C78.7167 36.6857 78.7537 36.5646 78.8314 36.4702C78.9091 36.3758 79.0212 36.3158 79.1433 36.3033C79.4608 36.2273 79.7705 36.1221 80.0684 35.9891C80.5147 35.8021 81.1534 35.4344 81.0901 34.842C81.0635 34.7336 81.0202 34.6299 80.9618 34.5347C80.8824 34.4262 80.7762 34.3404 80.653 34.2853C80.5299 34.2302 80.3945 34.2077 80.2601 34.2205C79.9808 34.2211 79.7065 34.2924 79.4625 34.4272C79.1852 34.5774 78.9452 34.7872 78.7603 35.0415C78.6496 35.1647 78.5534 35.3001 78.4732 35.4447C78.4732 35.4824 78.4415 35.5232 78.4415 35.5609L78.4423 35.5586ZM53.1964 34.8113C52.8798 34.9095 52.2713 35.3723 52.2713 35.6285C52.3354 35.7369 53.1015 35.4289 53.3888 35.1374C53.612 34.9284 53.452 34.7382 53.1964 34.8113ZM51.5347 35.5586C51.5347 35.517 51.5664 35.4801 51.5664 35.4424C51.6622 35.2994 51.7245 35.1633 51.8218 35.0392C52.0184 34.7838 52.269 34.5743 52.5557 34.4249C52.7999 34.2901 53.0745 34.2188 53.354 34.2182C53.4881 34.2086 53.6225 34.2323 53.7451 34.2872C53.8676 34.3421 53.9746 34.4262 54.0562 34.5324C54.1185 34.6228 54.1516 34.73 54.1516 34.8397C54.2474 35.4321 53.577 35.7998 53.1624 35.9868C52.8554 36.1245 52.5347 36.2298 52.2056 36.301C52.0892 36.3209 51.985 36.3839 51.9138 36.4775C51.8427 36.571 51.81 36.6882 51.8226 36.8047C51.849 36.9149 51.9175 37.0106 52.0135 37.0717C52.5733 37.2922 53.1912 37.32 53.7687 37.1504C54.4332 36.975 55.0322 36.6117 55.4925 36.1046C55.5558 36.0566 55.6205 35.9814 55.7155 36.0129C55.7796 36.0412 55.8113 36.1493 55.8113 36.2216C55.8113 36.9735 54.9171 37.699 54.4391 37.9277C53.9396 38.154 53.3916 38.2546 52.8436 38.2212C52.3479 38.2086 51.8776 38.0016 51.5355 37.6453C51.359 37.446 51.2377 37.2043 51.1839 36.9444C51.1826 36.4597 51.3036 35.9828 51.5355 35.5563L51.5347 35.5586ZM47.5128 34.8113C47.1614 34.9095 46.5553 35.3723 46.5877 35.6285C46.6202 35.7369 47.4168 35.4289 47.6724 35.1374C47.8956 34.9284 47.7684 34.7382 47.5144 34.8113H47.5128ZM45.8214 35.5586C45.8531 35.517 45.8531 35.4801 45.8848 35.4424C45.954 35.2987 46.0396 35.1632 46.1402 35.0392C46.3252 34.785 46.5652 34.5753 46.8424 34.4249C47.0879 34.2939 47.3612 34.2229 47.6399 34.2182C47.7744 34.2054 47.9098 34.2275 48.0329 34.2826C48.1561 34.3377 48.2627 34.4239 48.3421 34.5324C48.4005 34.6275 48.4436 34.7313 48.4696 34.8397C48.5337 35.4321 47.895 35.7998 47.4479 35.9868C47.15 36.1199 46.8403 36.225 46.5228 36.301C46.4639 36.3081 46.4069 36.3268 46.3555 36.3562C46.3041 36.3856 46.2591 36.4251 46.2233 36.4721C46.1876 36.5191 46.162 36.5726 46.1476 36.6298C46.1332 36.6869 46.1302 36.7465 46.1395 36.8047C46.1403 36.859 46.1554 36.9121 46.1831 36.959C46.2109 37.0058 46.2505 37.0446 46.2979 37.0717C46.8577 37.2922 47.4756 37.32 48.053 37.1504C48.7235 36.9678 49.3309 36.6061 49.8086 36.1046C49.8402 36.0566 49.9361 35.9814 50.0002 36.0129C50.0643 36.0443 50.0957 36.1493 50.1274 36.2216C50.0443 36.5952 49.8743 36.9443 49.6304 37.2405C49.3866 37.5368 49.0757 37.7724 48.7235 37.9277C48.2237 38.1541 47.6755 38.2547 47.1272 38.2212C46.6329 38.2024 46.1649 37.9964 45.8191 37.6453C45.6404 37.4516 45.5294 37.2057 45.5026 36.9444C45.4773 36.4615 45.5868 35.9813 45.8191 35.5563L45.8214 35.5586ZM73.9374 31.8744C74.085 33.612 74.4733 35.321 75.0912 36.9532C75.1553 36.6146 75.2497 36.2415 75.347 35.8322L75.4746 35.4071C75.6077 34.9349 75.7675 34.4706 75.9533 34.0164C76.1116 33.5496 76.304 33.1158 76.4638 32.7135C76.6553 32.3112 76.8469 31.9632 77.0067 31.6615C77.1169 31.4223 77.2787 31.2103 77.4813 31.0408C77.5129 31.0125 77.5772 31.0283 77.7046 31.0857C77.8406 31.1481 77.969 31.2256 78.0876 31.3166C78.2033 31.4107 78.3093 31.5159 78.4041 31.6308C78.4998 31.7424 78.5315 31.8337 78.4682 31.9036C78.2269 32.2892 78.014 32.6912 77.8306 33.1071C77.6391 33.551 77.4475 33.9909 77.2877 34.438C77.1261 34.8579 76.9874 35.2865 76.8727 35.7213C76.7528 36.0746 76.6674 36.4383 76.6172 36.8078C76.5536 37.0475 76.5318 37.2963 76.5531 37.5432C76.5531 37.7216 76.6173 37.7932 76.7115 37.7688C76.8698 37.724 76.9344 37.7501 76.9028 37.8475C76.8555 37.9717 76.7912 38.0888 76.7115 38.1955C76.5969 38.3355 76.4683 38.4637 76.3282 38.5787C76.2005 38.6992 76.1049 38.7592 76.0411 38.7586C75.932 38.7534 75.8248 38.7289 75.7246 38.6858C75.6151 38.635 75.5094 38.5766 75.4081 38.5112C75.3017 38.4626 75.2043 38.3961 75.1206 38.3148C75.0248 38.2488 74.9923 38.2042 74.9923 38.1751C74.1478 36.756 73.6255 35.1709 73.4613 33.5307C73.4288 33.0592 73.2371 33.2006 73.1096 33.5495C72.6422 34.6354 72.2376 35.7468 71.8974 36.8784C71.8331 37.1738 71.7691 37.4393 71.7058 37.6745C71.6417 37.9102 71.6099 38.1088 71.5782 38.2699C71.5555 38.3784 71.5446 38.4894 71.5458 38.6002C71.5321 38.6378 71.5053 38.6688 71.47 38.6881C71.4348 38.7073 71.3938 38.7132 71.3545 38.7046C70.4927 38.6346 70.8438 36.6705 71.0028 36.0969L71.227 35.3016C71.2929 34.9765 71.3889 34.6583 71.5141 34.3509C71.6098 34.0366 71.7376 33.7272 71.831 33.4294C71.9243 33.1316 72.0548 32.8589 72.1474 32.5949C72.2386 32.3666 72.3442 32.1442 72.4639 31.9293C72.4859 31.884 72.497 31.8342 72.4964 31.7839C72.4793 31.7678 72.4593 31.755 72.4373 31.7467C72.4152 31.7383 72.3916 31.7345 72.3681 31.7352C72.3258 31.73 72.2835 31.7281 72.241 31.729C72.1768 31.729 72.1451 31.7163 72.1451 31.688C72.1127 31.6621 72.1127 31.6143 72.1768 31.5483C72.2235 31.4683 72.2891 31.4009 72.3681 31.3519C72.4666 31.2806 72.5727 31.2202 72.6846 31.172C72.8059 31.1214 72.9363 31.0947 73.0679 31.0933C73.1793 31.1053 73.2869 31.1397 73.3844 31.1946C73.4168 31.2111 73.799 31.6133 73.8315 31.6573C73.8639 31.7013 73.8957 31.7359 73.9273 31.772V31.8737L73.9374 31.8744ZM37.6188 36.3708C38.3383 35.8626 39.1696 35.5324 40.0436 35.4071C40.1057 35.1191 40.072 34.8186 39.9478 34.5512C39.8782 34.5046 39.8031 34.4663 39.7244 34.4372C39.6412 34.4135 39.5555 34.4007 39.469 34.3989C39.3102 34.407 39.1563 34.4564 39.0227 34.542C38.8435 34.6403 38.6725 34.7526 38.5114 34.878C38.331 35.0045 38.1604 35.1444 38.001 35.2962C37.8493 35.4294 37.6894 35.5528 37.5222 35.6661V35.6764L37.4905 35.6833V34.4882C37.4905 34.2785 37.5221 34.1091 37.458 34.0823L36.4046 34.2086C36.1498 34.2785 36.1175 34.5834 36.1175 34.893V35.1711C36.1175 35.2733 36.15 35.3748 36.15 35.4761C36.1859 35.5674 36.2071 35.6634 36.2137 35.7612C36.231 35.8362 36.2525 35.9103 36.2779 35.9829C36.2868 36.0438 36.3084 36.1019 36.3413 36.1541C36.3769 36.2129 36.3988 36.279 36.4054 36.3474C36.4379 36.3984 36.4597 36.4552 36.4695 36.5147C36.4892 36.5415 36.5003 36.5736 36.5012 36.6068C36.472 36.6707 36.4283 36.7271 36.3737 36.7717C36.278 36.8668 36.1506 36.9934 36.0232 37.1427C35.8958 37.292 35.736 37.4625 35.5761 37.6503C35.4163 37.8381 35.2595 38.0266 35.1012 38.2231C34.9738 38.4195 34.8457 38.6158 34.7507 38.7997C34.5924 39.1541 34.5589 39.2657 34.8786 39.5156L35.5491 39.8133C35.7406 39.7654 35.8049 39.4305 35.8049 39.2631C36.0248 38.5173 36.37 37.8137 36.8258 37.1819C36.8899 37.2738 36.9538 37.365 37.0171 37.4577C37.1453 37.5881 37.241 37.7019 37.3684 37.8095C37.4883 37.9086 37.6167 37.9978 37.7517 38.0754C37.8591 38.1377 37.9785 38.1768 38.1022 38.1901C38.1346 38.1972 38.1664 38.2064 38.1988 38.215C38.2299 38.224 38.2622 38.2286 38.2946 38.2284H38.4218C38.4753 38.2251 38.5285 38.2163 38.5802 38.2024C38.8968 38.1175 39.0906 37.6297 38.9632 37.4773C38.9632 37.4458 38.899 37.4389 38.8673 37.4389C38.8673 37.4389 38.8348 37.4389 38.8032 37.4389C38.7715 37.4389 38.7394 37.4491 38.7077 37.4577L38.676 37.4669C38.5478 37.5023 38.0057 37.562 37.6226 36.5484V36.5296V36.5235C37.6226 36.4701 37.591 36.4157 37.6226 36.3662L37.6188 36.3708ZM111.341 39.0479C110.775 39.2291 110.23 39.4681 109.713 39.7607C109.522 39.8652 109.362 39.9821 109.17 40.1118C109.019 40.2362 108.889 40.3852 108.788 40.5526C108.564 40.9455 108.532 41.4875 109.104 41.4875C109.293 41.4889 109.479 41.4441 109.646 41.3571C109.825 41.2675 109.986 41.1463 110.121 40.9995C110.26 40.8342 110.387 40.6604 110.504 40.4793C110.759 40.0079 111.046 39.5162 111.334 39.0479H111.341ZM114.469 37.6092C114.432 37.6451 114.389 37.674 114.342 37.6948C114.278 37.7427 114.184 37.7924 114.086 37.8521C113.636 38.1305 113.166 38.3779 112.682 38.5929C111.98 39.8595 110.32 43.2435 108.408 42.1632C108.295 42.1091 108.196 42.0283 108.121 41.9276C108.04 41.8444 107.985 41.7394 107.963 41.6257C107.926 41.512 107.904 41.394 107.9 41.2746C107.896 40.9957 107.962 40.7203 108.091 40.4724C108.207 40.2223 108.368 39.9956 108.566 39.8037C108.765 39.5951 108.99 39.4131 109.236 39.2624C109.492 39.102 109.758 38.96 110.034 38.8373C110.53 38.6123 111.042 38.4249 111.566 38.2764C111.599 38.252 111.63 38.227 111.63 38.2073C111.662 38.1508 111.693 38.0871 111.726 38.014C111.758 37.9409 111.789 37.8803 111.821 37.8206C111.853 37.7381 111.917 37.6524 111.949 37.5636C111.982 37.4748 112.013 37.3839 112.045 37.2912L112.236 36.7717V36.7341C112.236 36.7208 112.205 36.7149 112.172 36.7149C112.094 36.7355 112.019 36.7676 111.949 36.8101C111.821 36.8761 111.662 36.9554 111.503 37.0568C111.311 37.1542 111.12 37.2629 110.897 37.3714C110.673 37.4798 110.45 37.5896 110.258 37.691C110.073 37.7866 109.881 37.8683 109.683 37.9353C109.572 37.9859 109.454 38.019 109.332 38.0336C109.28 38.0373 109.227 38.03 109.177 38.0125C109.128 37.9949 109.083 37.9674 109.045 37.9315C108.959 37.8739 108.892 37.7915 108.853 37.6956C108.821 37.6068 108.789 37.5156 108.757 37.4189V37.1945C108.757 37.0328 108.802 36.8742 108.886 36.7357C108.97 36.5581 109.076 36.3914 109.202 36.2404C109.34 36.0682 109.49 35.9055 109.649 35.7528C109.811 35.6013 109.981 35.4596 110.16 35.3284C110.309 35.211 110.468 35.106 110.635 35.0142C110.741 34.9374 110.859 34.8802 110.986 34.8458C111.018 34.8364 111.082 34.828 111.113 34.8178C111.178 34.8021 111.241 34.7893 111.305 34.7768C111.347 34.7638 111.389 34.754 111.433 34.7476L111.528 34.7384C111.617 34.7362 111.706 34.7525 111.789 34.7863C111.871 34.8202 111.945 34.8708 112.007 34.9348C112.138 35.0536 112.218 35.2183 112.23 35.3944C112.216 35.4619 112.194 35.5278 112.166 35.5909C112.151 35.6362 112.126 35.6776 112.093 35.7121C112.06 35.7466 112.019 35.7733 111.974 35.7904C111.871 35.8325 111.766 35.8673 111.658 35.8947C111.516 35.9225 111.377 35.965 111.243 36.0213C111.144 36.0713 111.048 36.1274 110.956 36.1893C110.86 36.2632 110.764 36.3468 110.639 36.4395C110.543 36.5317 110.448 36.6301 110.352 36.7349C110.288 36.8278 110.235 36.9276 110.194 37.0326V37.0506H110.225L112.779 36.1353C112.844 36.1315 112.909 36.1378 112.971 36.1541C113.049 36.1752 113.124 36.206 113.195 36.2454C113.264 36.2911 113.328 36.3435 113.386 36.4023C113.402 36.4326 113.41 36.4663 113.41 36.5005C113.41 36.5347 113.402 36.5683 113.386 36.5987L113.099 37.6791C113.441 37.5167 113.772 37.332 114.089 37.1255C114.252 36.9959 114.401 36.8501 114.535 36.6908C114.682 36.5626 114.81 36.4153 114.918 36.253C114.957 36.1058 115.01 35.9625 115.076 35.8249C115.204 35.5436 115.299 35.2835 115.393 35.0392C115.486 34.7948 115.584 34.5899 115.648 34.4107C115.744 34.2363 115.776 34.1192 115.807 34.0682C115.934 33.7987 116.061 33.5181 116.221 33.2345C116.349 32.949 116.507 32.6259 116.696 32.265C116.76 32.122 116.854 31.9546 116.952 31.7574C117.049 31.5602 117.143 31.3833 117.207 31.2245C117.257 31.1586 117.3 31.0875 117.335 31.0124C117.399 30.9205 117.462 30.8326 117.526 30.7461C117.596 30.6657 117.67 30.5896 117.75 30.5182C117.822 30.4594 117.911 30.4259 118.005 30.4231H118.068C118.124 30.4298 118.178 30.4479 118.227 30.4764C118.275 30.5198 118.328 30.558 118.385 30.5904C118.448 30.6352 118.481 30.673 118.543 30.7177C118.576 30.7594 118.607 30.7877 118.607 30.7964C118.607 30.8286 118.64 30.8663 118.64 30.9111C118.664 30.9449 118.676 30.986 118.672 31.0273C118.655 31.1803 118.611 31.3293 118.544 31.4682C118.448 31.6402 118.352 31.8045 118.257 31.9727C118.128 32.1408 118.002 32.3016 117.874 32.4572C117.77 32.5821 117.674 32.7133 117.586 32.8501C117.428 33.0559 117.27 33.2846 117.075 33.5345C116.917 33.7849 116.759 34.032 116.6 34.2761C116.438 34.5107 116.289 34.754 116.153 35.0046C115.995 35.3024 115.866 35.6071 115.739 35.9135V35.9427C115.85 35.8514 115.967 35.7678 116.09 35.6921C116.217 35.6136 116.345 35.5349 116.473 35.4673C116.606 35.4001 116.744 35.345 116.887 35.3024C117.011 35.2613 117.14 35.24 117.271 35.2394H117.335C117.476 35.2439 117.61 35.2954 117.718 35.3856C117.813 35.4963 117.898 35.615 117.972 35.7401C118.036 35.8831 118.1 36.038 118.164 36.2116C118.197 36.3821 118.228 36.5407 118.26 36.6923C118.293 36.8169 118.314 36.9441 118.324 37.0725V37.2555C118.357 37.2681 118.357 37.2745 118.357 37.2682C118.357 37.2619 118.356 37.2682 118.389 37.2682C118.492 37.2658 118.593 37.2315 118.676 37.17C118.788 37.1031 118.894 37.0266 118.993 36.9413C119.088 36.8494 119.184 36.7582 119.28 36.6632C119.376 36.5681 119.438 36.4848 119.503 36.4188C119.503 36.3936 119.567 36.3804 119.631 36.3804C119.699 36.3773 119.766 36.396 119.822 36.4337C119.886 36.4691 119.886 36.5288 119.886 36.6121C119.885 36.6784 119.862 36.7425 119.822 36.7951C119.797 36.8751 119.765 36.953 119.726 37.0272C119.693 37.1083 119.638 37.179 119.568 37.2329C119.504 37.3114 119.44 37.3816 119.376 37.4546C119.281 37.5332 119.185 37.6005 119.121 37.6641C119.025 37.727 118.962 37.7783 118.898 37.816C118.802 37.8695 118.705 37.9236 118.581 37.981C118.271 38.1521 117.938 38.2788 117.592 38.3574C117.528 38.3707 117.464 38.3793 117.401 38.3919C117.337 38.4045 117.305 38.4053 117.305 38.4053C117.26 38.4043 117.215 38.3907 117.177 38.3666C117.138 38.3321 117.095 38.3017 117.05 38.2756C117.017 38.2403 116.986 38.2026 116.954 38.1609C116.93 38.1291 116.918 38.0897 116.921 38.05V36.8999C116.948 36.7739 116.959 36.6449 116.954 36.5162C116.921 36.3866 116.922 36.2627 116.89 36.1456C116.826 35.8573 116.507 35.9303 116.475 35.9327C116.417 35.9736 116.365 36.0203 116.317 36.0723C116.185 36.1937 116.067 36.3298 115.966 36.4779C115.849 36.6177 115.743 36.766 115.649 36.9217C115.553 37.0671 115.458 37.1841 115.393 37.2666C115.286 37.4002 115.199 37.5497 115.138 37.7098C115.042 37.8842 114.946 38.0492 114.883 38.2008C114.851 38.2165 114.851 38.2262 114.851 38.2388C114.822 38.256 114.788 38.2636 114.755 38.2607C114.719 38.252 114.686 38.2348 114.659 38.2104C114.596 38.1835 114.542 38.1409 114.501 38.0869C114.501 38.0555 114.468 38.0084 114.468 37.9511C114.468 37.8937 114.437 37.8491 114.437 37.8145C114.437 37.7579 114.468 37.688 114.468 37.6016L114.469 37.6092ZM35.2894 31.7409C35.2881 31.8416 35.2548 31.9393 35.194 32.0198C35.0982 32.1078 35.0022 32.1912 34.9065 32.2642C34.8074 32.3356 34.7014 32.3969 34.59 32.4472C34.5088 32.4858 34.4227 32.5135 34.3342 32.5297C34.3007 32.5304 34.2682 32.5389 34.2387 32.5547C34.1746 32.5704 34.1428 32.5861 34.0803 32.6018C34.0178 32.6176 33.9519 32.6341 33.8886 32.6475C33.8253 32.6609 33.7614 32.6688 33.7306 32.6759C33.6451 32.6779 33.5597 32.6861 33.4755 32.7008C33.4114 32.7103 33.3476 32.7168 33.2842 32.7223C33.2319 32.7313 33.1789 32.7368 33.1258 32.7388C33.0625 32.7388 32.9677 32.7448 32.8387 32.7518C32.7097 32.7589 32.5839 32.7644 32.3924 32.7676C32.2009 32.7707 32.2001 32.7676 31.9136 32.7676L30.7327 34.4859H32.4878C32.4878 34.4859 32.5203 34.4861 32.5837 34.4798C32.6153 34.4798 32.6796 34.4797 32.7421 34.4694C32.7745 34.4694 32.8376 34.4634 32.9001 34.4602C32.9215 34.4591 32.9429 34.4591 32.9643 34.4602C32.9959 34.4602 33.0285 34.4538 33.0601 34.4506C33.1234 34.4444 33.156 34.4381 33.2185 34.4349L33.3465 34.4215C33.3789 34.4152 33.4423 34.4084 33.4423 34.4084C33.4965 34.4128 33.5499 34.4246 33.6007 34.4437C33.6293 34.4512 33.6543 34.4681 33.6718 34.4917C33.6894 34.5153 33.6985 34.5441 33.6973 34.5734C33.7019 34.6364 33.6907 34.6995 33.6649 34.7572C33.6324 34.82 33.569 34.8806 33.5366 34.9348C33.4733 34.9914 33.409 35.0422 33.3449 35.0917C33.3037 35.1428 33.2491 35.1816 33.1869 35.2034C33.0433 35.2771 32.8938 35.3386 32.7398 35.3871C32.5482 35.4437 32.3575 35.4948 32.1652 35.5348C31.9728 35.5749 31.7821 35.6087 31.5905 35.6338C31.3674 35.655 31.2075 35.6653 31.0801 35.6653C30.6329 35.6653 30.4413 35.7535 29.9625 35.7221C29.869 35.8972 29.7944 36.0813 29.7396 36.2718C29.6715 36.4591 29.6495 36.6599 29.6754 36.8573C29.7182 36.8954 29.7683 36.9246 29.8226 36.9432C29.877 36.9618 29.9345 36.9696 29.9919 36.9659C30.4854 36.977 30.9784 36.9279 31.4599 36.8197C31.9342 36.7224 32.4029 36.5994 32.8638 36.4518C32.9279 36.4298 33.0223 36.3945 33.1513 36.3505C33.2608 36.3145 33.3667 36.2689 33.4678 36.2139C33.645 36.1406 33.8157 36.0528 33.9783 35.9515C34.1348 35.8641 34.3101 35.815 34.4895 35.8084C34.5232 35.8039 34.5575 35.8059 34.5904 35.8145C34.6232 35.8232 34.6538 35.8382 34.6808 35.8586C34.722 35.9063 34.7446 35.9673 34.7442 36.0301C34.7279 36.2611 34.6389 36.4809 34.4895 36.6586C34.3224 36.882 34.1293 37.0851 33.9141 37.2636C33.7056 37.4446 33.4811 37.607 33.2437 37.7485C33.0766 37.8554 32.8933 37.9349 32.7007 37.9841C32.6465 37.9971 32.5937 38.0149 32.5427 38.0374C32.502 38.0591 32.4592 38.0772 32.4152 38.0911C32.3194 38.1162 32.1913 38.1419 32.0987 38.1694C31.9713 38.1945 31.844 38.2199 31.7482 38.2426C31.6524 38.2654 31.524 38.2834 31.4607 38.296C31.4178 38.2991 31.3751 38.3054 31.3332 38.3148C31.3007 38.3148 31.2694 38.3149 31.206 38.3244C31.1427 38.3338 31.0785 38.3346 31.0144 38.3378C30.9503 38.3409 30.8868 38.348 30.8227 38.3535C30.791 38.3588 30.7594 38.362 30.7273 38.3635H30.2809C29.8969 38.3892 29.515 38.288 29.1951 38.0754C29.0558 37.9478 28.9486 37.7892 28.8821 37.6131C28.8156 37.4369 28.7913 37.248 28.8118 37.061C28.8126 37.027 28.824 36.994 28.8442 36.9666V36.7829C28.8442 36.7137 28.8767 36.6395 28.8767 36.568C28.9008 36.5076 28.9116 36.443 28.9084 36.3781C28.9455 36.3017 28.9775 36.2227 29.0042 36.1422C29.0358 36.0471 29.0684 35.9592 29.1 35.8767C29.1334 35.8065 29.1551 35.7316 29.1642 35.6545C29.184 35.6197 29.1949 35.5806 29.1959 35.5406V35.4704C29.1642 35.457 29.1642 35.4391 29.1317 35.414C29.0914 35.3161 29.0697 35.2116 29.0676 35.1059C29.0351 34.9826 29.0034 34.9064 29.0034 34.875C29.0064 34.7509 29.0514 34.6312 29.1309 34.5354C29.216 34.4542 29.3293 34.4089 29.4474 34.4084C29.4791 34.4084 29.5116 34.4083 29.5433 34.4154C29.5863 34.4205 29.6292 34.4277 29.6715 34.4372L30.7246 32.5201C30.6279 32.4293 30.5519 32.3191 30.5008 32.1971C30.4692 32.0947 30.448 31.9895 30.4374 31.8829C30.432 31.8273 30.4442 31.7715 30.4726 31.7233C30.501 31.675 30.5444 31.6369 30.5959 31.6143C30.7195 31.5683 30.8479 31.5363 30.9788 31.5192L34.8725 31.5004C34.9152 31.5014 34.9579 31.5057 35 31.513C35.0442 31.5235 35.0872 31.5382 35.1283 31.5575C35.1739 31.5788 35.2166 31.6052 35.2562 31.6362C35.2689 31.651 35.2785 31.6685 35.284 31.6872C35.2895 31.7059 35.2906 31.7255 35.2879 31.7448L35.2894 31.7409ZM44.4809 36.5699C44.4805 36.6323 44.4695 36.6941 44.4485 36.7529C44.4208 36.838 44.3888 36.9216 44.3526 37.0035C44.272 37.2296 44.1282 37.4283 43.938 37.5762C43.7438 37.7395 43.5291 37.8771 43.2992 37.9856C43.0748 38.0926 42.8397 38.1752 42.5975 38.2323C42.3986 38.2787 42.1954 38.3051 41.9912 38.3109H41.7995C41.7454 38.3068 41.6923 38.2952 41.6415 38.2764C41.5774 38.2544 41.483 38.2284 41.4181 38.1978C41.3532 38.1671 41.2597 38.1382 41.194 38.1091C41.1495 38.0891 41.107 38.0654 41.0661 38.0389C40.9955 37.9853 40.9311 37.9239 40.8744 37.8559C40.8103 37.7774 40.7785 37.6941 40.716 37.6092C40.6843 37.5236 40.653 37.434 40.6213 37.3491C40.5873 37.2745 40.5656 37.195 40.5572 37.1136C40.5648 36.865 40.6182 36.62 40.7152 36.3908C40.8378 36.1475 40.977 35.9125 41.131 35.6875C41.3225 35.4628 41.5137 35.2528 41.7052 35.0587C41.9167 34.8719 42.1408 34.6996 42.3757 34.5427C42.5853 34.403 42.8103 34.2873 43.0461 34.1978C43.2164 34.119 43.4012 34.0759 43.5891 34.0712C43.6752 34.0736 43.7606 34.0862 43.8437 34.1088C43.9229 34.1381 43.9981 34.1774 44.0671 34.2258C44.1354 34.276 44.1896 34.3426 44.2251 34.4192C44.2643 34.5039 44.2859 34.5957 44.2885 34.6889C44.2862 34.7914 44.2527 34.8906 44.1926 34.9739C44.1431 35.0671 44.0786 35.1515 44.0014 35.2237C43.9234 35.2926 43.8375 35.3523 43.7456 35.4013C43.6674 35.444 43.5801 35.4669 43.4909 35.4681C43.4364 35.4638 43.3828 35.4509 43.3325 35.4297C43.2824 35.3984 43.2297 35.372 43.1744 35.3511C43.1278 35.33 43.0845 35.3022 43.0461 35.2686C42.982 35.2442 42.982 35.231 42.982 35.231C42.7856 35.2472 42.5976 35.3173 42.439 35.4336C42.224 35.5811 42.0209 35.7453 41.832 35.9246C41.6529 36.1047 41.4936 36.3033 41.3571 36.517C41.2286 36.6573 41.1504 36.8356 41.1341 37.0246C41.1567 37.0529 41.1861 37.0754 41.2195 37.0898C41.2529 37.1042 41.2891 37.11 41.3254 37.107C41.3895 37.107 41.4838 37.107 41.5487 37.107H41.8358C41.9216 37.1018 42.0072 37.0913 42.0917 37.0756C42.2191 37.0528 42.3464 37.0278 42.4746 37.0027C42.6579 36.9667 42.8391 36.9212 43.0175 36.8661C43.2407 36.8095 43.4323 36.7512 43.6238 36.6946C43.6555 36.682 43.7194 36.66 43.7819 36.6309C43.8444 36.6019 43.9403 36.5744 44.0052 36.5461C44.0701 36.5179 44.1336 36.4887 44.1637 36.4675C44.2041 36.4493 44.2468 36.4375 44.2908 36.4322H44.4492C44.4817 36.4511 44.4817 36.4992 44.4817 36.5692L44.4809 36.5699Z" fill="#F26309"/>
<path fill-rule="evenodd" clip-rule="evenodd" d="M115.084 24.9658H100.181C99.7397 24.9608 99.3171 24.7886 98.9999 24.4843L95.745 21.2628C95.5723 21.1043 95.4347 20.9116 95.3412 20.6973C95.2477 20.483 95.2004 20.2518 95.2021 20.0182V0.286383H101.425V19.1359C101.423 19.3056 101.49 19.469 101.609 19.5901C101.729 19.7112 101.893 19.7799 102.063 19.7815H115.084V24.9658ZM71.362 0.286383C70.9108 0.285212 70.4763 0.456555 70.1486 0.76441L66.8937 4.00318C66.5589 4.32726 66.3642 4.76794 66.3508 5.23201V20.019C66.3786 20.5114 66.5959 20.9745 66.9579 21.3123L70.1486 24.4835C70.475 24.7938 70.91 24.9663 71.362 24.965H86.2339C86.4534 24.9686 86.6712 24.9278 86.8742 24.8449C87.0773 24.7621 87.2613 24.6393 87.4148 24.4835L90.638 21.2904C90.8221 21.1337 90.9692 20.9384 91.0685 20.7188C91.1678 20.4992 91.2169 20.2605 91.2126 20.0198V10.2966H76.947V15.4766H85.019V19.1366C85.0188 19.2231 85.0012 19.3087 84.9672 19.3883C84.9332 19.4679 84.8836 19.5399 84.8212 19.6001C84.7587 19.6603 84.6847 19.7072 84.6036 19.7386C84.5225 19.7699 84.436 19.7851 84.349 19.7827H73.2439C73.1568 19.7851 73.0703 19.7699 72.9892 19.7386C72.9081 19.7072 72.8341 19.6603 72.7716 19.6001C72.7092 19.5399 72.6596 19.4679 72.6256 19.3883C72.5916 19.3087 72.574 19.2231 72.5738 19.1366V6.11325C72.5742 6.02688 72.5919 5.94182 72.626 5.86235C72.66 5.78288 72.7096 5.71072 72.772 5.65057C72.8345 5.59042 72.9086 5.54312 72.9896 5.51169C73.0706 5.48026 73.1569 5.46537 73.2439 5.46757H84.3505C84.4374 5.46548 84.5238 5.4806 84.6048 5.51207C84.6857 5.54355 84.7595 5.59082 84.8219 5.65095C84.8843 5.71108 84.9343 5.78292 84.9684 5.86235C85.0025 5.94177 85.0201 6.02691 85.0206 6.11325V8.20798H91.2119V5.23354C91.2139 4.99881 91.1666 4.76627 91.0731 4.55065C90.9797 4.33502 90.842 4.14084 90.6689 3.98093L87.4141 0.765178C87.2599 0.610615 87.0756 0.488562 86.8727 0.406465C86.6698 0.324369 86.4523 0.283997 86.2332 0.287534L71.362 0.286383ZM39.0325 0.286383H45.2844L56.1669 14.7853V0.286383H62.3907V24.9658H56.1387L45.2562 10.4631V24.9658H39.0325V0.286383ZM28.8235 0.286383H35.0469V24.9658H28.8235V0.286383ZM6.22841 19.7827H18.0043C18.1753 19.781 18.3386 19.712 18.4584 19.5909C18.5781 19.4698 18.6446 19.3063 18.6431 19.1366V6.11325C18.6439 5.94374 18.5772 5.78074 18.4576 5.65978C18.338 5.53881 18.1751 5.46985 18.0043 5.46757H6.22841V19.7827ZM0.00463711 0.287534H19.8553C20.3062 0.286484 20.7405 0.45744 21.0679 0.765178L24.2911 3.98093C24.4686 4.13899 24.6111 4.33181 24.71 4.54719C24.8088 4.76258 24.862 4.9961 24.8657 5.23278V20.0198C24.8653 20.2643 24.8109 20.5059 24.7061 20.7272C24.6014 20.9485 24.4488 21.1441 24.2594 21.3004L21.0679 24.4851C20.7417 24.7952 20.307 24.9676 19.8553 24.9666H0V0.287534H0.00463711ZM118.823 0.287534H125.046V24.9666H118.823V0.287534Z" fill="white"/>
</svg>
