<?xml version="1.0" encoding="utf-8"?><svg viewBox="0 0 32 32" xmlns="http://www.w3.org/2000/svg" xmlns:xlink="http://www.w3.org/1999/xlink"><style>:root>svg{display:none}:root>svg:target{display:block}</style><svg viewBox="0 0 16 16" id="arrow-down" xmlns="http://www.w3.org/2000/svg"><path d="M12.8 5.6 8 10.4 3.2 5.6" opacity=".6"/></svg><svg viewBox="0 0 19 16" id="arrow-more" xmlns="http://www.w3.org/2000/svg"><path d="M0 8h17m0 0-7-7m7 7-7 7"/></svg><svg viewBox="0 0 28 28" id="arrow-orange-hero" xmlns="http://www.w3.org/2000/svg"><path fill-rule="evenodd" clip-rule="evenodd" d="M28 0v28h-7V12.112L5.95 27.163 1 22.213 16.213 7H0V0h28Z"/></svg><svg viewBox="0 0 22 24" id="arrow-short" xmlns="http://www.w3.org/2000/svg"><path d="M.312 12H20m0 0L9.5 1.5M20 12 9.5 22.5"/></svg><svg viewBox="0 0 20 20" id="calendar" xmlns="http://www.w3.org/2000/svg"><path d="M15.833 16.834H4.167V7.667h11.666m-2.5-5.833V3.5H6.667V1.833H5V3.5h-.833A1.66 1.66 0 0 0 2.5 5.167v11.666A1.667 1.667 0 0 0 4.167 18.5h11.666a1.666 1.666 0 0 0 1.667-1.666V5.167A1.667 1.667 0 0 0 15.833 3.5H15V1.833M14.167 11H10v4.167h4.167V11Z"/></svg><svg viewBox="0 0 14 10" id="checkbox" xmlns="http://www.w3.org/2000/svg"><path d="m1 4 4.364 4L13 1"/></svg><svg viewBox="0 0 16 16" id="clock" xmlns="http://www.w3.org/2000/svg"><path d="M7.999 1.333a6.667 6.667 0 1 1 0 13.333 6.667 6.667 0 0 1 0-13.333Zm0 2.667a.667.667 0 0 0-.667.667V8c0 .177.07.346.195.471l2 2a.667.667 0 0 0 .943-.942L8.665 7.724V4.667A.667.667 0 0 0 8 4Z"/></svg><svg viewBox="0 0 24 24" id="copy-icon" xmlns="http://www.w3.org/2000/svg"><path opacity=".6" fill-rule="evenodd" clip-rule="evenodd" d="M9.823 3h-1v5H4.098v13h12.396v-5h4.726V3H9.822Zm6.67 11h2.727V5h-8.397v3h5.67v6ZM6.099 19v-9h8.396v9H6.098Z"/></svg><svg viewBox="0 0 24 24" id="delete" xmlns="http://www.w3.org/2000/svg"><rect x="1" y="1" width="22" height="22" rx="11"/><path d="m8 8 8 8m0-8-8 8"/></svg><svg viewBox="0 0 24 24" id="download-icon" xmlns="http://www.w3.org/2000/svg"><path d="M4 22h16M12 2v16m0 0-5-5m5 5 5-5"/></svg><svg viewBox="0 0 20 20" id="electro" xmlns="http://www.w3.org/2000/svg"><path d="m11.145 2.066-6.079 8.688c-.162.231-.028.496.247.496h2.5c.219 0 .313.088.313.313v6.726c0 .444.537.638.794.282l6.01-8.018c.17-.231.033-.553-.242-.553h-2.187c-.313 0-.625-.313-.625-.625V2.187c0-.312-.475-.483-.73-.12Z"/></svg><svg viewBox="0 0 16 16" id="email" xmlns="http://www.w3.org/2000/svg"><path d="m1.377 3.655 5.917 5.917a1 1 0 0 0 1.339.069l.076-.069 5.912-5.913c.02.073.032.148.039.224l.005.117v8a1.334 1.334 0 0 1-1.233 1.33l-.1.003H2.665a1.333 1.333 0 0 1-1.33-1.233l-.003-.1V4c0-.08.007-.158.02-.233l.025-.112Zm11.955-.988c.08 0 .16.007.237.02l.113.026-5.68 5.68L2.32 2.712c.074-.02.15-.033.227-.04l.118-.005h10.667Z"/></svg><svg viewBox="0 0 32 32" id="file-icon" xmlns="http://www.w3.org/2000/svg"><path fill-rule="evenodd" clip-rule="evenodd" d="M8 2.667h13.333L26.667 8v18.667A2.667 2.667 0 0 1 24 29.333H8a2.667 2.667 0 0 1-2.667-2.666V5.333A2.667 2.667 0 0 1 8 2.667Zm12.23 2.666H8v21.334h16V9.104h-3.77v-3.77Zm-9.563 0h2.666V8h-2.666V5.333ZM13.333 8H16v2.667h-2.667V8Zm-2.666 2.667h2.666v2.666h-2.666v-2.666Zm2.666 2.666H16V16h-2.667v-2.667ZM12 18.667l1.333-1.334 1.334 1.334V24H12v-5.333Z" opacity=".6"/></svg><svg viewBox="0 0 24 24" id="icon-download" xmlns="http://www.w3.org/2000/svg"><path fill-rule="evenodd" clip-rule="evenodd" d="m17.781 10.976-5.78 4.625-5.781-4.625 1.56-1.952 2.97 2.375V3h2.5v8.4l2.969-2.376 1.561 1.952Z"/><path fill-rule="evenodd" clip-rule="evenodd" d="M2.75 15h2.5v3.75h13.5V15h2.5v6.25H2.75V15Z"/></svg><svg viewBox="0 0 24 24" id="icon-dwd" xmlns="http://www.w3.org/2000/svg"><path d="M12 3v11m0 0 5-4m-5 4-5-4m-3 5v5h16m0 0v-5m0 5h-8"/></svg><svg viewBox="0 0 16 16" id="mark" xmlns="http://www.w3.org/2000/svg"><path d="M13.006 9.66a5.667 5.667 0 1 0-9.338.992l.006.008.006.007h-.013l3.363 3.57a1.333 1.333 0 0 0 1.941 0l3.363-3.57h-.013l.006-.007.072-.087c.231-.284.434-.59.607-.913Zm-5.004-.494a2 2 0 1 1 0-4 2 2 0 0 1 0 4Z"/></svg><svg viewBox="0 0 20 20" id="oil" xmlns="http://www.w3.org/2000/svg"><path d="M3.333 17.5a.804.804 0 0 1-.593-.24.81.81 0 0 1-.24-.593c0-.236.08-.434.24-.594.16-.16.358-.24.593-.24h.834v-5h-.834a.804.804 0 0 1-.593-.24A.81.81 0 0 1 2.5 10c0-.236.08-.433.24-.593.16-.16.358-.24.593-.24h.834v-5h-.834a.804.804 0 0 1-.593-.24.81.81 0 0 1-.24-.594c0-.235.08-.433.24-.593.16-.16.358-.24.593-.24h13.334c.236 0 .434.08.594.24.16.16.24.358.239.593a.81.81 0 0 1-.24.595.797.797 0 0 1-.593.239h-.834v5h.834c.236 0 .434.08.594.24A.8.8 0 0 1 17.5 10c0 .236-.08.434-.24.594a.797.797 0 0 1-.593.24h-.834v5h.834c.236 0 .434.08.594.24a.8.8 0 0 1 .239.593.81.81 0 0 1-.24.594.797.797 0 0 1-.593.239H3.333ZM10 13.333a2.43 2.43 0 0 0 1.77-.718 2.35 2.35 0 0 0 .73-1.74c0-.542-.156-1.007-.468-1.396A119.68 119.68 0 0 0 10 7.083c-1.042 1.195-1.719 1.99-2.03 2.386a2.2 2.2 0 0 0-.47 1.406c0 .68.243 1.26.73 1.74.485.48 1.076.719 1.77.718Z"/></svg><svg viewBox="0 0 25 20" id="oil-electro" xmlns="http://www.w3.org/2000/svg"><path d="m11.464 1.878-5.568 9c-.148.239-.025.513.227.513h2.29c.2 0 .285.091.285.324v6.969c0 .46.493.66.727.291l5.506-8.306c.155-.24.03-.572-.222-.572h-2.004c-.286 0-.572-.324-.572-.648V2.003c0-.323-.435-.5-.67-.125Z"/><path fill-rule="evenodd" clip-rule="evenodd" d="M12.758 16.228a6.875 6.875 0 0 0 11.617-4.978c0-2.453-1.134-5.053-3.282-7.52A19.86 19.86 0 0 0 17.855.738a.625.625 0 0 0-.717 0 19.86 19.86 0 0 0-3.597 3.424v4.171h1.146c.866 0 1.532.536 1.817 1.195.277.64.212 1.404-.228 2.008l-.006.008-3.512 4.684Zm9.105-4.248a4.5 4.5 0 0 1-3.638 3.636.625.625 0 0 1-.204-1.233c1.295-.217 2.393-1.316 2.613-2.613a.625.625 0 1 1 1.233.21h-.004Z"/></svg><svg viewBox="0 0 21 23" id="pdf-icon" xmlns="http://www.w3.org/2000/svg"><path d="M2.491 23.005a2.105 2.105 0 0 1-1.543-.683c-1.15-1.167-1.26-2.611-.303-3.855.959-1.244 3.233-2.4 5.896-3.228a38.606 38.606 0 0 0 1.705-4.57C6.314 7.392 5.104 3.99 5.578 2.052c.338-1.403 1.432-2.149 3-2.056.792.067 2.184.514 2.638 2.77.373 1.845 0 4.626-.787 7.566a30.66 30.66 0 0 0 2.628 3.598c2.824-.252 5.366-.047 6.717.791a2.3 2.3 0 0 1 .695.58 2.348 2.348 0 0 1 .508 1.717 2.33 2.33 0 0 1-.265.874c-.022.05-.047.098-.075.144-1.009 1.511-2.628 1.902-4.494 1.064a13.198 13.198 0 0 1-3.873-3.007 32.94 32.94 0 0 0-4.292.818c-1.326 2.744-2.86 4.96-4.256 5.725a2.622 2.622 0 0 1-1.23.37ZM5.23 17.83c-1.367.55-2.451 1.197-2.996 1.906-.293.375-.343.643.136 1.136.08.077.131.129.414 0 .686-.4 1.558-1.506 2.446-3.043Zm9.773-1.918a8.322 8.322 0 0 0 1.972 1.326c1.276.576 1.735.072 1.952-.251.111-.278.06-.34-.181-.514-.701-.412-2.073-.586-3.743-.56Zm-5.34-3.053a45.525 45.525 0 0 1-.636 1.707c.55-.123 1.11-.232 1.665-.324a15.16 15.16 0 0 1-1.03-1.383ZM8.266 2.067c-.616 0-.681.267-.732.514-.257 1.064.358 3.043 1.453 5.227a12.69 12.69 0 0 0 .277-4.569c-.217-1.1-.64-1.172-.832-1.172h-.166Z"/></svg><svg viewBox="0 0 32 32" id="pdf-words-icon" xmlns="http://www.w3.org/2000/svg"><path fill-rule="evenodd" clip-rule="evenodd" d="M9.28 22.4H8V24h1.28c.48 0 .8-.32.8-.8 0-.48-.32-.8-.8-.8ZM17.6 3.2H4.8v25.6h20.8V11.2l-8-8Zm-6.08 20.16c0 1.28-.96 2.24-2.24 2.24H8v1.6H6.4v-6.4h2.88c1.28 0 2.24.96 2.24 2.24v.32Zm6.56.8c0 1.6-1.28 3.04-3.04 3.04H12.8v-6.4h2.24c1.6 0 3.04 1.28 3.04 3.04v.32ZM24 22.4h-3.2V24h2.4v1.6h-2.4v1.6h-1.6v-6.4H24v1.6Zm0-3.2H6.4V4.8h11.2v6.4H24v8Zm-8.96 3.2h-.64v3.2h.64c.96 0 1.6-.64 1.6-1.6 0-.96-.8-1.6-1.6-1.6Z"/></svg><svg viewBox="0 0 16 16" id="phone" xmlns="http://www.w3.org/2000/svg"><path d="M13.334 7.333h1.333c0-3.42-2.582-6-6.007-6v1.334c2.708 0 4.674 1.962 4.674 4.666Z"/><path d="M8.667 5.333c1.402 0 2 .598 2 2H12C12 5.183 10.817 4 8.667 4v1.333Zm2.281 3.629a.667.667 0 0 0-.927.029l-1.595 1.64c-.384-.073-1.156-.314-1.951-1.106-.795-.796-1.035-1.57-1.107-1.951l1.64-1.596a.667.667 0 0 0 .028-.927L4.573 2.342a.667.667 0 0 0-.927-.058l-1.447 1.24a.667.667 0 0 0-.193.433c-.01.167-.201 4.115 2.86 7.178C7.536 13.805 10.882 14 11.804 14c.134 0 .217-.004.239-.005a.662.662 0 0 0 .432-.194l1.24-1.448a.667.667 0 0 0-.057-.927l-2.71-2.464Z"/></svg><svg viewBox="0 0 25 25" id="printer" xmlns="http://www.w3.org/2000/svg"><g opacity=".4"><path d="M7.955 19.318h-3.41a1.136 1.136 0 0 1-1.136-1.136V12.5a2.273 2.273 0 0 1 2.273-2.273h13.636a2.273 2.273 0 0 1 2.273 2.273v5.682a1.136 1.136 0 0 1-1.136 1.136h-3.41M7.956 4.545h9.09v5.682h-9.09V4.545Zm0 12.5h9.09v4.546h-9.09v-4.546Z"/><path d="M6.818 14.773a1.136 1.136 0 1 0 0-2.273 1.136 1.136 0 0 0 0 2.273Z"/></g></svg><svg viewBox="0 0 24 24" id="search" xmlns="http://www.w3.org/2000/svg"><path d="m21 21-4.343-4.343m0 0A8 8 0 1 0 5.344 5.344a8 8 0 0 0 11.313 11.313Z" opacity=".6"/></svg></svg>